<svg width="12" height="12" viewBox="0 0 12 12" fill="none" xmlns="http://www.w3.org/2000/svg">
<path d="M8.59744 8.40109V6.58497H7.68938V8.40109H8.59744ZM6.78132 8.40109V3.88191H5.89438V8.40109H6.78132ZM4.98632 8.40109V5.23344H4.07826V8.40109H4.98632ZM9.48438 2.08691C9.72372 2.08691 9.93489 2.17842 10.1179 2.36144C10.3009 2.54446 10.3924 2.75564 10.3924 2.99497V9.28803C10.3924 9.52737 10.3009 9.73854 10.1179 9.92156C9.93489 10.1046 9.72372 10.1961 9.48438 10.1961H3.19132C2.95199 10.1961 2.74081 10.1046 2.55779 9.92156C2.37477 9.73854 2.28326 9.52737 2.28326 9.28803V2.99497C2.28326 2.75564 2.37477 2.54446 2.55779 2.36144C2.74081 2.17842 2.95199 2.08691 3.19132 2.08691H9.48438Z" fill="#5E7AA0"/>
</svg>
