<svg width="12" height="12" viewBox="0 0 12 12" fill="none" xmlns="http://www.w3.org/2000/svg">
<path d="M8.00943 8.40109V6.58497H7.10137V8.40109H8.00943ZM6.19331 8.40109V3.88191H5.30637V8.40109H6.19331ZM4.39831 8.40109V5.23344H3.49025V8.40109H4.39831ZM8.89637 2.08691C9.13571 2.08691 9.34688 2.17842 9.5299 2.36144C9.71292 2.54446 9.80443 2.75564 9.80443 2.99497V9.28803C9.80443 9.52737 9.71292 9.73854 9.5299 9.92156C9.34688 10.1046 9.13571 10.1961 8.89637 10.1961H2.60331C2.36398 10.1961 2.1528 10.1046 1.96978 9.92156C1.78676 9.73854 1.69525 9.52737 1.69525 9.28803V2.99497C1.69525 2.75564 1.78676 2.54446 1.96978 2.36144C2.1528 2.17842 2.36398 2.08691 2.60331 2.08691H8.89637Z" fill="#5E7AA0"/>
</svg>
