<svg width="30" height="30" viewBox="0 0 30 30" fill="none" xmlns="http://www.w3.org/2000/svg">
<path d="M10.078 7.33447C10.8025 7.33447 11.4544 7.3972 12.0521 7.52512C12.6462 7.65181 13.153 7.8609 13.581 8.14995C14.0029 8.439 14.3325 8.82275 14.5699 9.3049C14.7999 9.7809 14.9143 10.3762 14.9143 11.0798C14.9143 11.8424 14.7421 12.4795 14.3965 12.9875C14.0484 13.4967 13.5355 13.9136 12.8516 14.2359C13.7827 14.5053 14.4727 14.9763 14.9303 15.6455C15.3903 16.3207 15.6154 17.1288 15.6154 18.0759C15.6154 18.8446 15.469 19.5051 15.175 20.0599C14.8918 20.6063 14.4808 21.0764 13.977 21.4301C13.4553 21.7934 12.8724 22.06 12.2563 22.2172C11.6103 22.3868 10.9451 22.472 10.2773 22.4706H2.94043V7.33447H10.078ZM9.64629 13.4499C10.2367 13.4499 10.7262 13.3097 11.1124 13.0256C11.4962 12.7452 11.6819 12.2827 11.6819 11.6492C11.6819 11.2975 11.6192 11.0072 11.4962 10.7796C11.3763 10.5607 11.199 10.3787 10.9833 10.2532C10.7575 10.1193 10.5083 10.0296 10.249 9.98877C9.96631 9.93606 9.6792 9.91093 9.39168 9.91374H6.27368V13.4499H9.64629ZM9.83201 19.8938C10.1604 19.8938 10.4728 19.8655 10.7668 19.7991C11.0632 19.7351 11.3264 19.6318 11.5503 19.4781C11.7742 19.3305 11.9586 19.13 12.0915 18.8742C12.2256 18.6208 12.2907 18.2899 12.2907 17.8926C12.2907 17.1128 12.0706 16.5581 11.6352 16.2223C11.1985 15.8902 10.6131 15.7254 9.89597 15.7254H6.27368V19.895H9.83201V19.8938ZM20.3668 19.8434C20.8182 20.2837 21.4689 20.5051 22.3151 20.5051C22.9215 20.5051 23.4454 20.3514 23.887 20.0463C24.3224 19.7401 24.5881 19.4129 24.6902 19.0746H27.3408C26.9152 20.3932 26.2695 21.3353 25.3864 21.9024C24.5143 22.4718 23.4528 22.7547 22.213 22.7547C21.3496 22.7547 20.5722 22.6158 19.876 22.3402C19.2078 22.08 18.604 21.678 18.1061 21.1619C17.6164 20.6338 17.2379 20.0127 16.993 19.3354C16.7237 18.5865 16.5904 17.7955 16.5994 16.9997C16.5994 16.1805 16.7359 15.4142 17.004 14.707C17.2586 14.0233 17.6494 13.3986 18.1528 12.8706C18.651 12.354 19.2414 11.9469 19.9289 11.648C20.6519 11.3439 21.4299 11.1924 22.2142 11.2028C23.1416 11.2028 23.9522 11.3823 24.6484 11.744C25.3235 12.0891 25.9088 12.5869 26.358 13.1978C26.8045 13.8042 27.1231 14.4991 27.3211 15.2777C27.5191 16.055 27.588 16.8668 27.5314 17.7167H19.6214C19.6227 18.5826 19.9142 19.403 20.3668 19.8434ZM23.8255 14.0858C23.4676 13.6898 22.8624 13.4758 22.122 13.4758C21.6411 13.4758 21.2438 13.5557 20.924 13.7205C20.6316 13.8682 20.3722 14.0737 20.1614 14.3245C19.9763 14.5521 19.8391 14.8149 19.758 15.0969C19.687 15.332 19.6412 15.5741 19.6214 15.8189H24.5192C24.4479 15.0514 24.1847 14.4844 23.8255 14.0858ZM19.0064 8.35044H25.1428V9.84486H19.0064V8.35044Z" fill="#00204B"/>
</svg>
