<svg width="31" height="30" viewBox="0 0 31 30" fill="none" xmlns="http://www.w3.org/2000/svg">
<path d="M12.4828 13.7793C11.8162 13.7793 11.291 14.3635 11.291 15.0769C11.291 15.7878 11.8285 16.3745 12.4828 16.3745C13.1482 16.3745 13.6734 15.7878 13.6734 15.0769C13.687 14.3623 13.1482 13.7793 12.4828 13.7793ZM16.7484 13.7793C16.0817 13.7793 15.5565 14.3635 15.5565 15.0769C15.5565 15.7878 16.094 16.3745 16.7484 16.3745C17.4138 16.3745 17.939 15.7878 17.939 15.0769C17.9378 14.3623 17.4138 13.7793 16.7484 13.7793Z" fill="#00204B"/>
<path d="M22.4272 3.9751H6.76832C6.45302 3.9759 6.14097 4.0388 5.84999 4.16021C5.559 4.28161 5.29478 4.45914 5.07241 4.68266C4.85003 4.90618 4.67386 5.1713 4.55395 5.46291C4.43404 5.75451 4.37273 6.06688 4.37354 6.38217V22.18C4.37354 23.5121 5.44855 24.5871 6.76832 24.5871H20.0189L19.3978 22.4236L20.8946 23.8147L22.3079 25.1234L24.822 27.3447V6.38217C24.8228 6.06688 24.7615 5.75451 24.6416 5.46291C24.5217 5.1713 24.3455 4.90618 24.1231 4.68266C23.9007 4.45914 23.6365 4.28161 23.3455 4.16021C23.0545 4.0388 22.7425 3.9759 22.4272 3.9751ZM17.9156 19.2355C17.9156 19.2355 17.495 18.7336 17.1457 18.2872C18.6758 17.8542 19.26 16.8973 19.26 16.8973C18.7803 17.2122 18.3252 17.436 17.9156 17.5885C16.4245 18.2126 14.7824 18.3829 13.195 18.0781C12.6084 17.9628 12.0336 17.794 11.4779 17.5738C11.1848 17.4624 10.9 17.3305 10.6255 17.1789C10.5899 17.1531 10.5554 17.1433 10.521 17.1199C10.5026 17.1111 10.4862 17.0986 10.473 17.083C10.2627 16.9674 10.1458 16.8862 10.1458 16.8862C10.1458 16.8862 10.7067 17.821 12.1913 18.265C11.8408 18.7078 11.4078 19.2355 11.4078 19.2355C8.82607 19.1531 7.84578 17.4594 7.84578 17.4594C7.84578 13.6969 9.52839 10.6477 9.52839 10.6477C11.211 9.38455 12.8112 9.42022 12.8112 9.42022L12.9281 9.56044C10.8248 10.1693 9.85434 11.0918 9.85434 11.0918C9.85434 11.0918 10.1126 10.9515 10.5444 10.7535C11.794 10.2049 12.7866 10.0524 13.1962 10.0168C13.2663 10.0057 13.3253 9.99339 13.3955 9.99339C15.4215 9.72036 17.4816 10.1054 19.2723 11.0918C19.2723 11.0918 18.3486 10.216 16.3622 9.60841L16.5258 9.42145C16.5258 9.42145 18.1272 9.38578 19.8086 10.649C19.8086 10.649 21.4912 13.6981 21.4912 17.4606C21.4912 17.4606 20.4986 19.1531 17.9156 19.2355Z" fill="#00204B"/>
</svg>
