<svg width="30" height="30" viewBox="0 0 30 30" fill="none" xmlns="http://www.w3.org/2000/svg">
<path d="M25.4934 8.87042C24.4201 7.01035 22.8754 5.46609 21.0151 4.39329C19.1295 3.29492 17.0718 2.74512 14.8418 2.74512C12.6118 2.74512 10.5541 3.29492 8.6673 4.39329C6.78174 5.49166 5.28854 6.98486 4.19017 8.87042C3.09179 10.756 2.54199 12.815 2.54199 15.0449C2.54199 17.2749 3.09056 19.3339 4.19017 21.2194C5.26311 23.0798 6.80788 24.6241 8.66853 25.6966C10.5541 26.7949 12.6118 27.3447 14.8418 27.3447C17.0718 27.3447 19.1295 26.7949 21.0163 25.6966C22.8767 24.6238 24.4213 23.0795 25.4947 21.2194C26.593 19.3339 27.1416 17.2749 27.1416 15.0449C27.1416 12.815 26.593 10.756 25.4934 8.87042ZM14.8418 4.78689C17.3018 4.78689 19.4813 5.57407 21.3853 7.14722C20.2537 8.59122 18.5736 9.77938 16.3424 10.7142C15.1099 8.48421 13.7742 6.62202 12.3314 5.13005C13.1491 4.90396 13.9934 4.78854 14.8418 4.78689ZM6.85922 8.64902C7.75863 7.5069 8.89664 6.575 10.1937 5.91847C11.6844 7.39567 13.0534 9.23942 14.3018 11.4534C11.8419 12.1914 9.2417 12.5604 6.50253 12.5604C5.79775 12.5604 5.26517 12.5444 4.90356 12.5112C5.28051 11.1021 5.94652 9.78683 6.85922 8.64902ZM4.58376 15.0449C4.58376 14.9785 4.58745 14.8973 4.59606 14.7989C4.60467 14.7005 4.60836 14.6194 4.60836 14.5529C4.92077 14.5702 5.39678 14.5775 6.03637 14.5775C9.3155 14.5775 12.3658 14.1261 15.1862 13.2246C15.4162 13.6833 15.6548 14.1999 15.8996 14.7743C14.276 15.1347 12.6106 16.0117 10.9046 17.4065C9.19865 18.8013 7.95391 20.2687 7.16672 21.8098C5.44475 19.8578 4.58376 17.6033 4.58376 15.0449ZM14.8418 25.303C12.5122 25.303 10.4212 24.581 8.56767 23.1394C9.30689 21.6794 10.4422 20.2834 11.9759 18.9563C13.5085 17.6279 15.03 16.8001 16.5392 16.4717C17.4912 19.1026 18.1351 21.835 18.4579 24.6142C17.3053 25.0646 16.0793 25.2981 14.8418 25.303ZM23.5501 20.4322C22.745 21.7293 21.6609 22.8306 20.3767 23.656C20.0815 21.0977 19.5157 18.6045 18.6806 16.1765C19.8269 16.0953 20.8515 16.0535 21.7555 16.0535C22.7383 16.0535 23.8293 16.0953 25.026 16.1765C24.8655 17.6892 24.3606 19.145 23.5501 20.4322ZM22.0249 14.2823C20.5981 14.2823 19.2783 14.3401 18.0643 14.4545C17.8072 13.7815 17.5283 13.1169 17.228 12.462C19.7691 11.3476 21.5723 9.99462 22.6386 8.40303C24.1146 10.1422 24.919 12.1262 25.0494 14.3561C24.0507 14.3069 23.0421 14.2823 22.0249 14.2823Z" fill="#00204B"/>
</svg>
