<svg width="12" height="12" viewBox="0 0 12 12" fill="none" xmlns="http://www.w3.org/2000/svg">
<path d="M7.03624 7.13415L8.74678 3.43856L5.05119 5.14909L3.34066 8.84468L7.03624 7.13415ZM2.85495 2.97397C3.74189 2.08703 4.80481 1.64355 6.04372 1.64355C7.28262 1.64355 8.3385 2.08703 9.21136 2.97397C10.0983 3.84683 10.5418 4.90271 10.5418 6.14162C10.5418 7.38052 10.0983 8.44344 9.21136 9.33038C8.3385 10.2032 7.28262 10.6397 6.04372 10.6397C4.80481 10.6397 3.74189 10.2032 2.85495 9.33038C1.98209 8.44344 1.54565 7.38052 1.54565 6.14162C1.54565 4.90271 1.98209 3.84683 2.85495 2.97397ZM5.68471 5.80373C5.78326 5.70518 5.90293 5.65591 6.04372 5.65591C6.1845 5.65591 6.29713 5.70518 6.3816 5.80373C6.48015 5.8882 6.52942 6.00083 6.52942 6.14162C6.52942 6.2824 6.48015 6.40207 6.3816 6.50062C6.29713 6.58509 6.1845 6.62732 6.04372 6.62732C5.90293 6.62732 5.78326 6.58509 5.68471 6.50062C5.60024 6.40207 5.55801 6.2824 5.55801 6.14162C5.55801 6.00083 5.60024 5.8882 5.68471 5.80373Z" fill="#5E7AA0"/>
</svg>
