<svg width="31" height="30" viewBox="0 0 31 30" fill="none" xmlns="http://www.w3.org/2000/svg">
<path d="M25.4824 3.9751H5.80273C5.47652 3.9751 5.16367 4.10468 4.93301 4.33535C4.70234 4.56602 4.57275 4.87887 4.57275 5.20508V24.8848C4.57275 25.211 4.70234 25.5238 4.93301 25.7545C5.16367 25.9852 5.47652 26.1148 5.80273 26.1148H16.399V17.5541H13.5233V14.2024H16.399V11.7424C16.399 8.88272 18.1456 7.32434 20.704 7.32434C21.5637 7.32188 22.4247 7.36615 23.2808 7.45594V10.4325H21.5157C20.1283 10.4325 19.8577 11.0942 19.8577 12.0622V14.1962H23.175L22.7445 17.5479H19.8565V26.1148H25.4824C25.8086 26.1148 26.1215 25.9852 26.3522 25.7545C26.5828 25.5238 26.7124 25.211 26.7124 24.8848V5.20508C26.7124 4.87887 26.5828 4.56602 26.3522 4.33535C26.1215 4.10468 25.8086 3.9751 25.4824 3.9751Z" fill="#00204B"/>
</svg>
