<svg width="13" height="14" viewBox="0 0 13 14" fill="none" xmlns="http://www.w3.org/2000/svg">
<g clip-path="url(#clip0_803_100865)">
<path d="M6.11822 1.92578C3.31729 1.92578 1.04407 4.199 1.04407 6.99993C1.04407 9.80086 3.31729 12.0741 6.11822 12.0741C8.91915 12.0741 11.1924 9.80086 11.1924 6.99993C11.1924 4.199 8.91915 1.92578 6.11822 1.92578ZM6.11822 3.44803C6.96052 3.44803 7.64046 4.12796 7.64046 4.97027C7.64046 5.81258 6.96052 6.49252 6.11822 6.49252C5.27591 6.49252 4.59597 5.81258 4.59597 4.97027C4.59597 4.12796 5.27591 3.44803 6.11822 3.44803ZM6.11822 10.6533C4.84968 10.6533 3.72829 10.0038 3.07373 9.01944C3.08895 8.00969 5.10339 7.4566 6.11822 7.4566C7.12797 7.4566 9.14748 8.00969 9.16271 9.01944C8.50814 10.0038 7.38675 10.6533 6.11822 10.6533Z" fill="#5E7AA0"/>
</g>
<defs>
<clipPath id="clip0_803_100865">
<rect width="12.178" height="12.178" fill="white" transform="translate(0.0292358 0.911133)"/>
</clipPath>
</defs>
</svg>
