<svg width="13" height="13" viewBox="0 0 13 13" fill="none" xmlns="http://www.w3.org/2000/svg">
<g clip-path="url(#clip0_803_101142)">
<path d="M6.78923 1.80029C4.02469 1.80029 1.78101 4.04398 1.78101 6.80851C1.78101 9.57305 4.02469 11.8167 6.78923 11.8167C9.55377 11.8167 11.7974 9.57305 11.7974 6.80851C11.7974 4.04398 9.55377 1.80029 6.78923 1.80029ZM6.78923 3.30276C7.62059 3.30276 8.29169 3.97386 8.29169 4.80523C8.29169 5.63659 7.62059 6.30769 6.78923 6.30769C5.95786 6.30769 5.28676 5.63659 5.28676 4.80523C5.28676 3.97386 5.95786 3.30276 6.78923 3.30276ZM6.78923 10.4144C5.53717 10.4144 4.43035 9.77338 3.78429 8.80179C3.79932 7.80515 5.78758 7.25925 6.78923 7.25925C7.78586 7.25925 9.77914 7.80515 9.79416 8.80179C9.1481 9.77338 8.04128 10.4144 6.78923 10.4144Z" fill="#5E7AA0"/>
</g>
<defs>
<clipPath id="clip0_803_101142">
<rect width="12.0197" height="12.0197" fill="white" transform="translate(0.779358 0.798828)"/>
</clipPath>
</defs>
</svg>
