<svg width="13" height="13" viewBox="0 0 13 13" fill="none" xmlns="http://www.w3.org/2000/svg">
<g clip-path="url(#clip0_803_101042)">
<path d="M6.08524 1.63477C3.28644 1.63477 1.01495 3.90625 1.01495 6.70505C1.01495 9.50384 3.28644 11.7753 6.08524 11.7753C8.88403 11.7753 11.1555 9.50384 11.1555 6.70505C11.1555 3.90625 8.88403 1.63477 6.08524 1.63477ZM6.08524 3.15585C6.9269 3.15585 7.60632 3.83527 7.60632 4.67694C7.60632 5.5186 6.9269 6.19802 6.08524 6.19802C5.24357 6.19802 4.56415 5.5186 4.56415 4.67694C4.56415 3.83527 5.24357 3.15585 6.08524 3.15585ZM6.08524 10.3557C4.81767 10.3557 3.69713 9.70666 3.04307 8.72302C3.05828 7.71403 5.07118 7.16137 6.08524 7.16137C7.09422 7.16137 9.1122 7.71403 9.12741 8.72302C8.47334 9.70666 7.35281 10.3557 6.08524 10.3557Z" fill="#5E7AA0"/>
</g>
<defs>
<clipPath id="clip0_803_101042">
<rect width="12.1687" height="12.1687" fill="white" transform="translate(0.000915527 0.620605)"/>
</clipPath>
</defs>
</svg>
