<svg width="60" height="61" viewBox="0 0 60 61" fill="none" xmlns="http://www.w3.org/2000/svg">
<circle cx="30.0925" cy="30.6077" r="29.9075" fill="white"/>
<path fill-rule="evenodd" clip-rule="evenodd" d="M22.4796 29.3977L22.3854 29.3145C22.0249 28.954 21.9972 28.3868 22.3022 27.9945L22.3854 27.9003L29.3854 20.9003L29.4294 20.8589V20.8589L29.4972 20.8038V20.8038L29.6085 20.7321V20.7321L29.7212 20.6786V20.6786L29.8265 20.6433V20.6433L29.9744 20.6143V20.6143L30.0925 20.6074V20.6074L30.1678 20.6102V20.6102L30.2933 20.6277V20.6277L30.4047 20.6572V20.6572L30.5157 20.7011V20.7011L30.6132 20.7534V20.7534L30.718 20.8271V20.8271L30.7996 20.9003L37.7996 27.9003C38.1902 28.2908 38.1902 28.924 37.7996 29.3145C37.4392 29.675 36.8719 29.7027 36.4796 29.3977L36.3854 29.3145L31.0925 24.0234L31.0925 39.6074C31.0925 40.1597 30.6448 40.6074 30.0925 40.6074C29.5402 40.6074 29.0925 40.1597 29.0925 39.6074L29.0925 24.0214L23.7996 29.3145C23.4392 29.675 22.8719 29.7027 22.4796 29.3977L22.3854 29.3145L22.4796 29.3977Z" fill="#ECECEC" stroke="#FA7268" stroke-width="2"/>
</svg>
