<svg width="14" height="14" viewBox="0 0 14 14" fill="none" xmlns="http://www.w3.org/2000/svg">
<path d="M9.55717 9.87297V7.82745H8.53441V9.87297H9.55717ZM7.51165 9.87297V4.78296H6.51268V9.87297H7.51165ZM5.48992 9.87297V6.30521H4.46717V9.87297H5.48992ZM10.5561 2.76123C10.8257 2.76123 11.0636 2.8643 11.2697 3.07044C11.4758 3.27657 11.5789 3.51442 11.5789 3.78399V10.8719C11.5789 11.1415 11.4758 11.3794 11.2697 11.5855C11.0636 11.7916 10.8257 11.8947 10.5561 11.8947H3.46819C3.19863 11.8947 2.96078 11.7916 2.75464 11.5855C2.5485 11.3794 2.44543 11.1415 2.44543 10.8719V3.78399C2.44543 3.51442 2.5485 3.27657 2.75464 3.07044C2.96078 2.8643 3.19863 2.76123 3.46819 2.76123H10.5561Z" fill="#C4C4C4"/>
</svg>
