<svg width="14" height="14" viewBox="0 0 14 14" fill="none" xmlns="http://www.w3.org/2000/svg">
<path d="M9.1801 9.57891V7.55997H8.17063V9.57891H9.1801ZM7.16116 9.57891V4.55503H6.17517V9.57891H7.16116ZM5.1657 9.57891V6.0575H4.15623V9.57891H5.1657ZM10.1661 2.55957C10.4322 2.55957 10.6669 2.6613 10.8704 2.86476C11.0738 3.06822 11.1756 3.30298 11.1756 3.56904V10.5649C11.1756 10.831 11.0738 11.0657 10.8704 11.2692C10.6669 11.4726 10.4322 11.5744 10.1661 11.5744H3.17024C2.90417 11.5744 2.66941 11.4726 2.46596 11.2692C2.2625 11.0657 2.16077 10.831 2.16077 10.5649V3.56904C2.16077 3.30298 2.2625 3.06822 2.46596 2.86476C2.66941 2.6613 2.90417 2.55957 3.17024 2.55957H10.1661Z" fill="#C4C4C4"/>
</svg>
