<svg width="15" height="14" viewBox="0 0 15 14" fill="none" xmlns="http://www.w3.org/2000/svg">
<path d="M8.59933 8.03829L10.5245 3.87908L6.36524 5.8042L4.44011 9.96342L8.59933 8.03829ZM3.89347 3.3562C4.89168 2.35799 6.08795 1.85889 7.48228 1.85889C8.87661 1.85889 10.065 2.35799 11.0473 3.3562C12.0455 4.33857 12.5446 5.52692 12.5446 6.92125C12.5446 8.31557 12.0455 9.51184 11.0473 10.5101C10.065 11.4924 8.87661 11.9836 7.48228 11.9836C6.08795 11.9836 4.89168 11.4924 3.89347 10.5101C2.91111 9.51184 2.41992 8.31557 2.41992 6.92125C2.41992 5.52692 2.91111 4.33857 3.89347 3.3562ZM7.07824 6.54098C7.18916 6.43006 7.32384 6.37461 7.48228 6.37461C7.64073 6.37461 7.76749 6.43006 7.86255 6.54098C7.97347 6.63604 8.02892 6.7628 8.02892 6.92125C8.02892 7.07969 7.97347 7.21437 7.86255 7.32529C7.76749 7.42035 7.64073 7.46789 7.48228 7.46789C7.32384 7.46789 7.18916 7.42035 7.07824 7.32529C6.98318 7.21437 6.93564 7.07969 6.93564 6.92125C6.93564 6.7628 6.98318 6.63604 7.07824 6.54098Z" fill="#C4C4C4"/>
</svg>
