<svg width="14" height="14" viewBox="0 0 14 14" fill="none" xmlns="http://www.w3.org/2000/svg">
<path d="M7.77174 8.17018L9.6733 4.06187L5.56499 5.96343L3.66343 10.0717L7.77174 8.17018ZM3.12348 3.5454C4.10948 2.5594 5.2911 2.06641 6.66836 2.06641C8.04563 2.06641 9.21943 2.5594 10.1898 3.5454C11.1758 4.51574 11.6688 5.68954 11.6688 7.0668C11.6688 8.44406 11.1758 9.62569 10.1898 10.6117C9.21943 11.582 8.04563 12.0672 6.66836 12.0672C5.2911 12.0672 4.10948 11.582 3.12348 10.6117C2.15314 9.62569 1.66797 8.44406 1.66797 7.0668C1.66797 5.68954 2.15314 4.51574 3.12348 3.5454ZM6.26927 6.69119C6.37883 6.58163 6.51186 6.52685 6.66836 6.52685C6.82487 6.52685 6.95008 6.58163 7.04398 6.69119C7.15354 6.78509 7.20831 6.9103 7.20831 7.0668C7.20831 7.22331 7.15354 7.35634 7.04398 7.46589C6.95008 7.5598 6.82487 7.60675 6.66836 7.60675C6.51186 7.60675 6.37883 7.5598 6.26927 7.46589C6.17537 7.35634 6.12842 7.22331 6.12842 7.0668C6.12842 6.9103 6.17537 6.78509 6.26927 6.69119Z" fill="#C4C4C4"/>
</svg>
