<svg width="12" height="13" viewBox="0 0 12 13" fill="none" xmlns="http://www.w3.org/2000/svg">
<path d="M8.32443 8.73117V6.91505H7.41637V8.73117H8.32443ZM6.50831 8.73117V4.21199H5.62137V8.73117H6.50831ZM4.71331 8.73117V5.56352H3.80525V8.73117H4.71331ZM9.21137 2.41699C9.45071 2.41699 9.66188 2.5085 9.8449 2.69152C10.0279 2.87454 10.1194 3.08572 10.1194 3.32505V9.61811C10.1194 9.85745 10.0279 10.0686 9.8449 10.2516C9.66188 10.4347 9.45071 10.5262 9.21137 10.5262H2.91831C2.67898 10.5262 2.4678 10.4347 2.28478 10.2516C2.10176 10.0686 2.01025 9.85745 2.01025 9.61811V3.32505C2.01025 3.08572 2.10176 2.87454 2.28478 2.69152C2.4678 2.5085 2.67898 2.41699 2.91831 2.41699H9.21137Z" fill="#C4C4C4"/>
</svg>
