<svg width="12" height="13" viewBox="0 0 12 13" fill="none" xmlns="http://www.w3.org/2000/svg">
<path d="M7.05736 7.67321L8.76789 3.97762L5.0723 5.68815L3.36177 9.38374L7.05736 7.67321ZM2.87607 3.51303C3.76301 2.62609 4.82593 2.18262 6.06483 2.18262C7.30374 2.18262 8.35962 2.62609 9.23248 3.51303C10.1194 4.38589 10.5629 5.44178 10.5629 6.68068C10.5629 7.91958 10.1194 8.9825 9.23248 9.86944C8.35962 10.7423 7.30374 11.1787 6.06483 11.1787C4.82593 11.1787 3.76301 10.7423 2.87607 9.86944C2.0032 8.9825 1.56677 7.91958 1.56677 6.68068C1.56677 5.44178 2.0032 4.38589 2.87607 3.51303ZM5.70583 6.3428C5.80438 6.24425 5.92405 6.19497 6.06483 6.19497C6.20562 6.19497 6.31825 6.24425 6.40272 6.3428C6.50126 6.42727 6.55054 6.53989 6.55054 6.68068C6.55054 6.82146 6.50126 6.94113 6.40272 7.03968C6.31825 7.12415 6.20562 7.16638 6.06483 7.16638C5.92405 7.16638 5.80438 7.12415 5.70583 7.03968C5.62136 6.94113 5.57913 6.82146 5.57913 6.68068C5.57913 6.53989 5.62136 6.42727 5.70583 6.3428Z" fill="#C4C4C4"/>
</svg>
