<svg width="14" height="14" viewBox="0 0 14 14" fill="none" xmlns="http://www.w3.org/2000/svg">
<path d="M8.13004 8.44681L10.0566 4.28443L5.89424 6.21102L3.96765 10.3734L8.13004 8.44681ZM3.4206 3.76115C4.41957 2.76218 5.61675 2.2627 7.01214 2.2627C8.40753 2.2627 9.59679 2.76218 10.5799 3.76115C11.5789 4.74427 12.0784 5.93352 12.0784 7.32892C12.0784 8.72431 11.5789 9.92149 10.5799 10.9205C9.59679 11.9036 8.40753 12.3951 7.01214 12.3951C5.61675 12.3951 4.41957 11.9036 3.4206 10.9205C2.43748 9.92149 1.94592 8.72431 1.94592 7.32892C1.94592 5.93352 2.43748 4.74427 3.4206 3.76115ZM6.6078 6.94835C6.71879 6.83736 6.85358 6.78186 7.01214 6.78186C7.17071 6.78186 7.29756 6.83736 7.3927 6.94835C7.5037 7.04349 7.5592 7.17035 7.5592 7.32892C7.5592 7.48748 7.5037 7.62226 7.3927 7.73326C7.29756 7.8284 7.17071 7.87597 7.01214 7.87597C6.85358 7.87597 6.71879 7.8284 6.6078 7.73326C6.51266 7.62226 6.46509 7.48748 6.46509 7.32892C6.46509 7.17035 6.51266 7.04349 6.6078 6.94835Z" fill="#C4C4C4"/>
</svg>
