<svg width="15" height="14" viewBox="0 0 15 14" fill="none" xmlns="http://www.w3.org/2000/svg">
<path d="M10.0254 9.46423V7.42027H9.00341V9.46423H10.0254ZM7.98143 9.46423V4.3781H6.98322V9.46423H7.98143ZM5.96124 9.46423V5.89919H4.93926V9.46423H5.96124ZM11.0236 2.35791C11.293 2.35791 11.5306 2.4609 11.7366 2.66688C11.9426 2.87286 12.0456 3.11053 12.0456 3.37989V10.4624C12.0456 10.7318 11.9426 10.9695 11.7366 11.1754C11.5306 11.3814 11.293 11.4844 11.0236 11.4844H3.94105C3.67169 11.4844 3.43402 11.3814 3.22804 11.1754C3.02206 10.9695 2.91907 10.7318 2.91907 10.4624V3.37989C2.91907 3.11053 3.02206 2.87286 3.22804 2.66688C3.43402 2.4609 3.67169 2.35791 3.94105 2.35791H11.0236Z" fill="#C4C4C4"/>
</svg>
