<svg width="47" height="16" viewBox="0 0 47 16" fill="none" xmlns="http://www.w3.org/2000/svg">
<g clip-path="url(#clip0_839_3663)">
<path d="M43.0404 8.08545V13.0686H45.8142V12.4426H43.7586V10.8149H45.6161V10.1889H43.7586V8.71148H45.8142V8.08545H43.0404Z" fill="#002751"/>
<path d="M40.2665 8.08545H38.9787V13.0686H39.6969V11.0653H40.3904C41.2819 11.0653 42.124 10.6647 42.124 9.56287C42.124 8.46107 41.2819 8.08545 40.2665 8.08545ZM40.3656 10.4644H39.6721V8.73652H40.2665C40.7123 8.73652 41.3562 8.96189 41.3562 9.58792C41.3562 10.239 40.8114 10.4644 40.3656 10.4644Z" fill="#002751"/>
<path d="M36.2791 8.08545H34.9913V13.0686H35.7095V11.0653H36.4029C37.2945 11.0653 38.1365 10.6647 38.1365 9.56287C38.1118 8.46107 37.2697 8.08545 36.2791 8.08545ZM36.3782 10.4644H35.6847V8.73652H36.2791C36.7249 8.73652 37.3688 8.96189 37.3688 9.58792C37.3688 10.239 36.824 10.4644 36.3782 10.4644Z" fill="#002751"/>
<path d="M33.6788 8.08545H32.9606V10.9151C32.9606 11.8667 32.6634 12.5177 31.7471 12.5177C30.8307 12.5177 30.5335 11.8667 30.5335 10.9151V8.08545H29.8153V11.0153C29.8153 12.4176 30.5088 13.1688 31.7223 13.1688C32.9358 13.1688 33.6293 12.4176 33.6293 11.0153V8.08545H33.6788Z" fill="#002751"/>
<path d="M28.0073 11.0904C27.8587 10.7899 27.7349 10.6647 27.5367 10.5896V10.5645C28.1064 10.4644 28.5521 10.0387 28.5521 9.43767C28.5521 8.2357 27.611 8.08545 26.6452 8.08545H25.4316V13.0686H26.1499V10.865H26.5709C26.9424 10.865 27.19 10.865 27.3881 11.3408L28.1559 13.0686H28.9484L28.0073 11.0904ZM26.7195 10.239H26.1251V8.73652H26.7938C27.4377 8.73652 27.7844 9.01197 27.7844 9.46271C27.7844 9.93849 27.4129 10.239 26.7195 10.239Z" fill="#002751"/>
<path d="M24.0943 8.26066C23.6733 8.11042 23.3761 8.01025 22.6579 8.01025C21.1472 8.01025 20.0575 9.03694 20.0575 10.5644C20.0575 12.142 21.0977 13.1687 22.6579 13.1687C23.4257 13.1687 23.8962 13.0435 24.1686 12.9434V10.3391H22.435V10.915H23.4752V12.4175C23.3018 12.4425 23.178 12.4926 22.6827 12.4926C21.6673 12.4926 20.8252 11.7163 20.8252 10.5394C20.8252 9.4376 21.593 8.5862 22.7075 8.5862C23.3514 8.5862 23.7229 8.7114 24.0696 8.93677L24.0943 8.26066Z" fill="#002751"/>
<path d="M34.4959 1.5498C34.1244 1.42459 33.7282 1.37451 33.3072 1.37451C32.4404 1.37451 31.5735 1.77517 31.5735 2.90202C31.5735 4.55473 33.7282 4.15407 33.7282 5.10564C33.7282 5.55638 33.2329 5.7567 32.8614 5.7567C32.4651 5.7567 32.0936 5.6315 31.7469 5.45621L31.6478 6.35769C32.1432 6.4829 32.3661 6.55802 32.9109 6.55802C33.9015 6.55802 34.7684 6.13232 34.7684 5.05555C34.7684 3.3778 32.6137 3.75342 32.6137 2.87698C32.6137 2.32607 33.0595 2.17583 33.3815 2.17583C33.7282 2.17583 34.0749 2.25095 34.3721 2.4012L34.4959 1.5498Z" fill="#002751"/>
<path d="M29.6914 3.85317C30.2858 3.72796 30.682 3.3273 30.682 2.72632C30.682 1.62451 29.7409 1.44922 29.097 1.44922H27.3634V6.4324H29.097C29.7162 6.4324 30.8306 6.25711 30.8306 4.98002C30.8306 4.37903 30.3848 3.92829 29.6914 3.85317ZM28.354 2.25053H28.7255C29.1713 2.25053 29.6666 2.30062 29.6666 2.87656C29.6666 3.40243 29.1466 3.47755 28.7255 3.47755H28.3293V2.25053H28.354ZM28.8246 5.65613H28.354V4.20374H28.8246C29.3199 4.20374 29.84 4.30391 29.84 4.95497C29.84 5.53092 29.2951 5.65613 28.8246 5.65613Z" fill="#002751"/>
<path d="M21.0481 6.4324H22.336L23.2028 2.45086L24.0943 6.4324H25.3822L26.67 1.44922H25.7041L24.763 5.43076L23.8962 1.44922H22.5588L21.7168 5.43076H21.692L20.7757 1.44922H19.7355L21.0481 6.4324Z" fill="#002751"/>
<path d="M16.0453 11.3661C16.0453 11.1157 16.0205 10.8653 15.9958 10.6149C15.9462 10.039 15.8472 9.46302 15.7481 8.88707C15.5995 8.03568 15.4014 7.18428 15.1785 6.35792C15.0051 5.73189 14.8318 5.10587 14.6336 4.47984C14.4603 3.95398 14.1383 2.45151 13.3706 2.57671C13.3706 2.57671 13.3458 2.57671 13.2963 2.57671C13.5192 3.27787 13.7668 4.07918 13.9897 4.95562C14.3117 6.18263 14.5841 7.40965 14.8318 8.63666C14.9804 9.36285 15.1042 10.064 15.2033 10.7902C15.228 10.9905 15.228 11.2409 15.0794 11.4162C14.9556 11.5915 14.7327 11.6666 14.5346 11.7167C13.965 11.9421 13.4201 12.1675 12.8505 12.3678C10.5968 13.1941 8.24403 13.8202 5.89127 14.321C5.61884 14.3711 5.34642 14.4212 5.04922 14.4963C4.55391 14.5964 4.05859 14.6966 3.56327 14.7717C3.38991 14.7968 3.16701 14.8218 2.99365 14.7717C3.01842 14.8469 3.06795 14.922 3.11748 14.9971C3.24131 15.1974 3.41467 15.4228 3.66233 15.4478C3.81093 15.4729 3.98429 15.4228 4.13289 15.3978C4.30625 15.3727 4.50437 15.3477 4.67774 15.3226C5.12352 15.2475 5.54454 15.1724 5.99033 15.0973C6.58471 14.9721 7.17909 14.8719 7.74871 14.7217C8.44216 14.5714 9.1356 14.3961 9.82905 14.1958C11.0673 13.8703 12.2809 13.4696 13.4696 13.0439C13.965 12.8686 14.4603 12.6683 14.9556 12.493C15.0547 12.468 15.129 12.4179 15.228 12.3928C15.5004 12.2927 15.8224 12.1675 15.971 11.892C16.0453 11.7167 16.0453 11.5414 16.0453 11.3661Z" fill="#CFCFCF"/>
<path d="M11.8599 1.80049C11.8599 2.0509 11.6618 2.27627 11.3894 2.27627C11.1417 2.27627 10.9188 2.07594 10.9188 1.80049C10.9188 1.55008 11.117 1.32471 11.3894 1.32471C11.637 1.32471 11.8599 1.52504 11.8599 1.80049Z" fill="#002751"/>
<path d="M13.346 0.948926C13.346 1.19934 13.1478 1.42471 12.8754 1.42471C12.6277 1.42471 12.4048 1.22438 12.4048 0.948926C12.4048 0.698515 12.603 0.473145 12.8754 0.473145C13.1231 0.473145 13.346 0.673473 13.346 0.948926Z" fill="#002751"/>
<path d="M12.4543 9.26281C12.1076 6.83383 11.4637 4.42988 10.5721 2.15114C10.4235 1.77552 10.2254 1.60024 9.82913 1.5752C9.7796 1.5752 9.73006 1.5752 9.68053 1.60024C9.65577 1.60024 9.631 1.60024 9.60624 1.60024C7.25347 1.90073 4.95024 2.5518 2.77084 3.45328C2.52318 3.55344 2.25075 3.67865 2.12692 3.9541C2.05263 4.12939 2.07739 4.32972 2.10216 4.53005C2.47365 6.93399 3.14233 9.28786 4.0339 11.5416C4.08343 11.6918 4.15773 11.8671 4.30633 11.9673C4.47969 12.0925 4.72735 12.0674 4.95024 12.0424C7.35254 11.6668 9.7053 11.0157 11.959 10.1142C12.1571 10.0391 12.3553 9.93892 12.4296 9.76364C12.5038 9.58835 12.4791 9.41306 12.4543 9.26281ZM6.80768 3.92906C7.05534 3.92906 7.27824 4.12939 7.27824 4.40484C7.27824 4.65525 7.08011 4.88062 6.80768 4.88062C6.56003 4.88062 6.33713 4.68029 6.33713 4.40484C6.33713 4.12939 6.56003 3.92906 6.80768 3.92906ZM4.75211 11.4163C4.50445 11.4163 4.28156 11.216 4.28156 10.9406C4.28156 10.6902 4.47969 10.4648 4.75211 10.4648C4.99977 10.4648 5.22267 10.6651 5.22267 10.9406C5.22267 11.216 5.02454 11.4163 4.75211 11.4163ZM6.23807 10.59C5.99041 10.59 5.76752 10.3897 5.76752 10.1142C5.76752 9.8638 5.96564 9.63843 6.23807 9.63843C6.48573 9.63843 6.70862 9.83876 6.70862 10.1142C6.70862 10.3646 6.51049 10.59 6.23807 10.59ZM6.65909 6.00747C6.65909 5.75706 6.85722 5.53169 7.12964 5.53169C7.3773 5.53169 7.60019 5.73202 7.60019 6.00747C7.60019 6.25788 7.40207 6.48325 7.12964 6.48325C6.88198 6.48325 6.65909 6.28292 6.65909 6.00747ZM6.98105 7.63514C6.98105 7.38473 7.17917 7.15936 7.4516 7.15936C7.69926 7.15936 7.92215 7.35969 7.92215 7.63514C7.92215 7.88555 7.72402 8.11092 7.4516 8.11092C7.17917 8.11092 6.98105 7.9106 6.98105 7.63514ZM7.72402 9.7386C7.47636 9.7386 7.25347 9.53827 7.25347 9.26281C7.25347 9.0124 7.4516 8.78703 7.72402 8.78703C7.97168 8.78703 8.19458 8.98736 8.19458 9.26281C8.19458 9.53827 7.99645 9.7386 7.72402 9.7386ZM8.29364 4.02922C8.04598 4.02922 7.82309 3.82889 7.82309 3.55344C7.82309 3.30303 8.02122 3.07766 8.29364 3.07766C8.56607 3.07766 8.76419 3.27799 8.76419 3.55344C8.76419 3.82889 8.56607 4.02922 8.29364 4.02922ZM9.7796 3.17783C9.53194 3.17783 9.30904 2.9775 9.30904 2.70204C9.30904 2.45163 9.50717 2.22626 9.7796 2.22626C10.0273 2.22626 10.2501 2.42659 10.2501 2.70204C10.2501 2.9775 10.052 3.17783 9.7796 3.17783Z" fill="#002751"/>
<path d="M2.69653 11.8669C2.69653 11.6165 2.89466 11.3911 3.16709 11.3911C3.41475 11.3911 3.63764 11.5914 3.63764 11.8669C3.63764 12.1173 3.43951 12.3427 3.16709 12.3427C2.89466 12.3427 2.69653 12.1423 2.69653 11.8669Z" fill="#002751"/>
<path d="M1.21057 12.7185C1.21057 12.468 1.4087 12.2427 1.68112 12.2427C1.92878 12.2427 2.15168 12.443 2.15168 12.7185C2.15168 12.9689 1.95355 13.1942 1.68112 13.1942C1.4087 13.1942 1.21057 12.9689 1.21057 12.7185Z" fill="#002751"/>
</g>
<defs>
<clipPath id="clip0_839_3663">
<rect width="45.074" height="15.5255" fill="white" transform="translate(0.963013 0.222656)"/>
</clipPath>
</defs>
</svg>
