<svg width="47" height="17" viewBox="0 0 47 17" fill="none" xmlns="http://www.w3.org/2000/svg">
<g clip-path="url(#clip0_839_2482)">
<path d="M43.2976 8.68799V13.7368H46.1079V13.1025H44.0253V11.4534H45.9072V10.8191H44.0253V9.32226H46.1079V8.68799H43.2976Z" fill="#002751"/>
<path d="M40.4872 8.68799H39.1824V13.7368H39.91V11.7071H40.6126C41.5159 11.7071 42.3691 11.3012 42.3691 10.1849C42.3691 9.06855 41.5159 8.68799 40.4872 8.68799ZM40.5875 11.0982H39.8849V9.34763H40.4872C40.9388 9.34763 41.5912 9.57596 41.5912 10.2102C41.5912 10.8699 41.0392 11.0982 40.5875 11.0982Z" fill="#002751"/>
<path d="M36.4473 8.68799H35.1425V13.7368H35.8702V11.7071H36.5728C37.4761 11.7071 38.3292 11.3012 38.3292 10.1849C38.3041 9.06855 37.451 8.68799 36.4473 8.68799ZM36.5477 11.0982H35.8451V9.34763H36.4473C36.899 9.34763 37.5513 9.57596 37.5513 10.2102C37.5513 10.8699 36.9993 11.0982 36.5477 11.0982Z" fill="#002751"/>
<path d="M33.8128 8.68799H33.0851V11.5549C33.0851 12.519 32.784 13.1786 31.8556 13.1786C30.9272 13.1786 30.6261 12.519 30.6261 11.5549V8.68799H29.8984V11.6564C29.8984 13.0771 30.601 13.8383 31.8305 13.8383C33.06 13.8383 33.7626 13.0771 33.7626 11.6564V8.68799H33.8128Z" fill="#002751"/>
<path d="M28.0666 11.7325C27.916 11.428 27.7906 11.3012 27.5898 11.2251V11.1997C28.167 11.0982 28.6186 10.6669 28.6186 10.058C28.6186 8.84021 27.6651 8.68799 26.6865 8.68799H25.457V13.7368H26.1847V11.5041H26.6113C26.9876 11.5041 27.2386 11.5041 27.4393 11.9862L28.2171 13.7368H29.0201L28.0666 11.7325ZM26.7618 10.8699H26.1596V9.34763H26.8371C27.4895 9.34763 27.8408 9.62671 27.8408 10.0834C27.8408 10.5654 27.4644 10.8699 26.7618 10.8699Z" fill="#002751"/>
<path d="M24.1021 8.86552C23.6756 8.7133 23.3745 8.61182 22.6468 8.61182C21.1162 8.61182 20.0121 9.65202 20.0121 11.1996C20.0121 12.798 21.066 13.8382 22.6468 13.8382C23.4247 13.8382 23.9014 13.7113 24.1774 13.6099V10.9713H22.421V11.5548H23.4748V13.0771C23.2992 13.1024 23.1737 13.1532 22.6719 13.1532C21.6431 13.1532 20.79 12.3667 20.79 11.1743C20.79 10.0579 21.5678 9.19534 22.697 9.19534C23.3494 9.19534 23.7258 9.3222 24.077 9.55053L24.1021 8.86552Z" fill="#002751"/>
<path d="M34.6407 2.06627C34.2643 1.93941 33.8628 1.88867 33.4362 1.88867C32.558 1.88867 31.6798 2.2946 31.6798 3.43629C31.6798 5.11076 33.8628 4.70482 33.8628 5.66891C33.8628 6.12559 33.361 6.32855 32.9846 6.32855C32.5831 6.32855 32.2067 6.2017 31.8555 6.0241L31.7551 6.93745C32.2569 7.0643 32.4828 7.14041 33.0348 7.14041C34.0385 7.14041 34.9167 6.70911 34.9167 5.61817C34.9167 3.91833 32.7337 4.29889 32.7337 3.41092C32.7337 2.85276 33.1853 2.70054 33.5115 2.70054C33.8628 2.70054 34.2141 2.77665 34.5152 2.92887L34.6407 2.06627Z" fill="#002751"/>
<path d="M29.7729 4.40044C30.3751 4.27358 30.7766 3.86765 30.7766 3.25875C30.7766 2.14244 29.8231 1.96484 29.1707 1.96484H27.4142V7.01362H29.1707C29.798 7.01362 30.9271 6.83603 30.9271 5.54212C30.9271 4.93322 30.4755 4.47655 29.7729 4.40044ZM28.4179 2.77671H28.7943C29.246 2.77671 29.7478 2.82745 29.7478 3.41098C29.7478 3.94376 29.2209 4.01987 28.7943 4.01987H28.3928V2.77671H28.4179ZM28.8947 6.22713H28.4179V4.75563H28.8947C29.3965 4.75563 29.9234 4.85711 29.9234 5.51675C29.9234 6.10028 29.3714 6.22713 28.8947 6.22713Z" fill="#002751"/>
<path d="M21.0158 7.01362H22.3206L23.1988 2.97967L24.1021 7.01362H25.4069L26.7117 1.96484H25.7331L24.7796 5.99879L23.9014 1.96484H22.5464L21.6933 5.99879H21.6682L20.7398 1.96484H19.6859L21.0158 7.01362Z" fill="#002751"/>
<path d="M15.9472 12.0117C15.9472 11.758 15.9221 11.5043 15.897 11.2506C15.8468 10.6671 15.7465 10.0836 15.6461 9.50002C15.4956 8.63742 15.2948 7.77481 15.069 6.93758C14.8933 6.30331 14.7177 5.66904 14.517 5.03477C14.3413 4.50199 14.0151 2.97974 13.2373 3.1066C13.2373 3.1066 13.2122 3.1066 13.162 3.1066C13.3878 3.81698 13.6388 4.62884 13.8646 5.51682C14.1908 6.75998 14.4668 8.00315 14.7177 9.24632C14.8683 9.98207 14.9937 10.6924 15.0941 11.4282C15.1192 11.6312 15.1192 11.8849 14.9686 12.0625C14.8432 12.2401 14.6173 12.3162 14.4166 12.3669C13.8395 12.5953 13.2875 12.8236 12.7103 13.0266C10.427 13.8638 8.04325 14.4981 5.65951 15.0055C5.3835 15.0562 5.10749 15.107 4.80639 15.1831C4.30455 15.2846 3.80271 15.386 3.30087 15.4621C3.12523 15.4875 2.8994 15.5129 2.72375 15.4621C2.74885 15.5383 2.79903 15.6144 2.84921 15.6905C2.97467 15.8935 3.15032 16.1218 3.40124 16.1472C3.55179 16.1725 3.72743 16.1218 3.87798 16.0964C4.05363 16.071 4.25436 16.0457 4.43001 16.0203C4.88166 15.9442 5.30823 15.8681 5.75988 15.792C6.36209 15.6651 6.96429 15.5636 7.54141 15.4114C8.24398 15.2592 8.94656 15.0816 9.64913 14.8786C10.9037 14.5488 12.1332 14.1429 13.3376 13.7116C13.8395 13.534 14.3413 13.331 14.8432 13.1534C14.9435 13.128 15.0188 13.0773 15.1192 13.0519C15.3952 12.9504 15.7214 12.8236 15.8719 12.5445C15.9472 12.3669 15.9472 12.1893 15.9472 12.0117Z" fill="#CFCFCF"/>
<path d="M11.7067 2.31993C11.7067 2.57364 11.5059 2.80198 11.2299 2.80198C10.979 2.80198 10.7532 2.59901 10.7532 2.31993C10.7532 2.06623 10.9539 1.83789 11.2299 1.83789C11.4808 1.83789 11.7067 2.04086 11.7067 2.31993Z" fill="#002751"/>
<path d="M13.2123 1.45714C13.2123 1.71085 13.0116 1.93919 12.7356 1.93919C12.4847 1.93919 12.2589 1.73622 12.2589 1.45714C12.2589 1.20343 12.4596 0.975098 12.7356 0.975098C12.9865 0.975098 13.2123 1.17806 13.2123 1.45714Z" fill="#002751"/>
<path d="M12.3089 9.88013C11.9576 7.41916 11.3053 4.98357 10.4019 2.67484C10.2514 2.29427 10.0507 2.11668 9.64919 2.09131C9.599 2.09131 9.54882 2.09131 9.49864 2.11668C9.47354 2.11668 9.44845 2.11668 9.42336 2.11668C7.03963 2.42113 4.70608 3.08077 2.49798 3.99411C2.24707 4.0956 1.97105 4.22245 1.84559 4.50153C1.77032 4.67912 1.79541 4.88209 1.8205 5.08506C2.19688 7.52065 2.87436 9.9055 3.77767 12.1889C3.82786 12.3411 3.90313 12.5187 4.05369 12.6202C4.22933 12.747 4.48025 12.7217 4.70608 12.6963C7.13999 12.3157 9.52373 11.6561 11.8071 10.7427C12.0078 10.6666 12.2086 10.5651 12.2838 10.3875C12.3591 10.2099 12.334 10.0324 12.3089 9.88013ZM6.58797 4.47616C6.83889 4.47616 7.06472 4.67912 7.06472 4.9582C7.06472 5.21191 6.86398 5.44025 6.58797 5.44025C6.33705 5.44025 6.11122 5.23728 6.11122 4.9582C6.11122 4.67912 6.33705 4.47616 6.58797 4.47616ZM4.50534 12.062C4.25442 12.062 4.02859 11.859 4.02859 11.58C4.02859 11.3263 4.22933 11.0979 4.50534 11.0979C4.75626 11.0979 4.98209 11.3009 4.98209 11.58C4.98209 11.859 4.78135 12.062 4.50534 12.062ZM6.01086 11.2248C5.75994 11.2248 5.53411 11.0218 5.53411 10.7427C5.53411 10.489 5.73485 10.2607 6.01086 10.2607C6.26178 10.2607 6.4876 10.4637 6.4876 10.7427C6.4876 10.9964 6.28687 11.2248 6.01086 11.2248ZM6.43742 6.58193C6.43742 6.32822 6.63816 6.09989 6.91417 6.09989C7.16509 6.09989 7.39091 6.30285 7.39091 6.58193C7.39091 6.83564 7.19018 7.06397 6.91417 7.06397C6.66325 7.06397 6.43742 6.86101 6.43742 6.58193ZM6.76361 8.23103C6.76361 7.97732 6.96435 7.74898 7.24036 7.74898C7.49128 7.74898 7.71711 7.95195 7.71711 8.23103C7.71711 8.48474 7.51637 8.71307 7.24036 8.71307C6.96435 8.71307 6.76361 8.51011 6.76361 8.23103ZM7.51637 10.3622C7.26545 10.3622 7.03963 10.1592 7.03963 9.88013C7.03963 9.62642 7.24036 9.39808 7.51637 9.39808C7.76729 9.39808 7.99312 9.60105 7.99312 9.88013C7.99312 10.1592 7.79238 10.3622 7.51637 10.3622ZM8.09349 4.57764C7.84257 4.57764 7.61674 4.37468 7.61674 4.0956C7.61674 3.84189 7.81748 3.61355 8.09349 3.61355C8.3695 3.61355 8.57023 3.81652 8.57023 4.0956C8.57023 4.37468 8.3695 4.57764 8.09349 4.57764ZM9.599 3.71504C9.34808 3.71504 9.12226 3.51207 9.12226 3.23299C9.12226 2.97928 9.32299 2.75095 9.599 2.75095C9.84992 2.75095 10.0758 2.95391 10.0758 3.23299C10.0758 3.51207 9.87502 3.71504 9.599 3.71504Z" fill="#002751"/>
<path d="M2.42273 12.5187C2.42273 12.265 2.62346 12.0366 2.89948 12.0366C3.1504 12.0366 3.37622 12.2396 3.37622 12.5187C3.37622 12.7724 3.17549 13.0007 2.89948 13.0007C2.62346 13.0007 2.42273 12.7977 2.42273 12.5187Z" fill="#002751"/>
<path d="M0.917236 13.3815C0.917236 13.1278 1.11797 12.8994 1.39398 12.8994C1.6449 12.8994 1.87073 13.1024 1.87073 13.3815C1.87073 13.6352 1.66999 13.8635 1.39398 13.8635C1.11797 13.8635 0.917236 13.6352 0.917236 13.3815Z" fill="#002751"/>
</g>
<defs>
<clipPath id="clip0_839_2482">
<rect width="45.6673" height="15.7299" fill="white" transform="translate(0.666382 0.72168)"/>
</clipPath>
</defs>
</svg>
