<svg width="42" height="15" viewBox="0 0 42 15" fill="none" xmlns="http://www.w3.org/2000/svg">
<g clip-path="url(#clip0_839_15072)">
<path d="M38.6931 7.11914V11.6017H41.1882V11.0386H39.3392V9.57442H41.01V9.01128H39.3392V7.68228H41.1882V7.11914H38.6931Z" fill="#002751"/>
<path d="M36.1979 7.11914H35.0395V11.6017H35.6855V9.79968H36.3093C37.1113 9.79968 37.8688 9.43927 37.8688 8.44815C37.8688 7.45702 37.1113 7.11914 36.1979 7.11914ZM36.2871 9.25906H35.6633V7.7048H36.1979C36.5989 7.7048 37.1782 7.90753 37.1782 8.47067C37.1782 9.05633 36.6881 9.25906 36.2871 9.25906Z" fill="#002751"/>
<path d="M32.6112 7.11914H31.4527V11.6017H32.0988V9.79968H32.7225C33.5246 9.79968 34.282 9.43927 34.282 8.44815C34.2597 7.45702 33.5023 7.11914 32.6112 7.11914ZM32.7003 9.25906H32.0765V7.7048H32.6112C33.0122 7.7048 33.5914 7.90753 33.5914 8.47067C33.5914 9.05633 33.1013 9.25906 32.7003 9.25906Z" fill="#002751"/>
<path d="M30.272 7.11914H29.6259V9.66452C29.6259 10.5205 29.3586 11.1062 28.5343 11.1062C27.71 11.1062 27.4427 10.5205 27.4427 9.66452V7.11914H26.7966V9.75462C26.7966 11.0161 27.4204 11.6918 28.512 11.6918C29.6037 11.6918 30.2274 11.0161 30.2274 9.75462V7.11914H30.272Z" fill="#002751"/>
<path d="M25.1704 9.8222C25.0367 9.5519 24.9253 9.43927 24.7471 9.37169V9.34917C25.2595 9.25906 25.6605 8.87613 25.6605 8.33552C25.6605 7.25429 24.8139 7.11914 23.9451 7.11914H22.8535V11.6017H23.4995V9.61947H23.8782C24.2124 9.61947 24.4352 9.61947 24.6134 10.0475L25.304 11.6017H26.0169L25.1704 9.8222ZM24.0119 9.05633H23.4772V7.7048H24.0787C24.658 7.7048 24.9699 7.95258 24.9699 8.35804C24.9699 8.78603 24.6357 9.05633 24.0119 9.05633Z" fill="#002751"/>
<path d="M21.6504 7.27701C21.2717 7.14186 21.0044 7.05176 20.3583 7.05176C18.9993 7.05176 18.0191 7.9753 18.0191 9.34936C18.0191 10.7685 18.9548 11.692 20.3583 11.692C21.0489 11.692 21.4722 11.5794 21.7172 11.4893V9.14663H20.1578V9.66472H21.0935V11.0162C20.9375 11.0388 20.8261 11.0838 20.3806 11.0838C19.4672 11.0838 18.7097 10.3855 18.7097 9.32683C18.7097 8.33571 19.4003 7.56984 20.4028 7.56984C20.9821 7.56984 21.3162 7.68247 21.6281 7.8852L21.6504 7.27701Z" fill="#002751"/>
<path d="M31.0072 1.23971C30.673 1.12708 30.3165 1.08203 29.9378 1.08203C29.1581 1.08203 28.3784 1.44244 28.3784 2.45609C28.3784 3.94277 30.3165 3.58236 30.3165 4.43833C30.3165 4.84379 29.871 5.02399 29.5368 5.02399C29.1804 5.02399 28.8462 4.91137 28.5343 4.75369L28.4452 5.56461C28.8908 5.67723 29.0913 5.74481 29.5814 5.74481C30.4725 5.74481 31.2522 5.36188 31.2522 4.39328C31.2522 2.88407 29.314 3.22195 29.314 2.43356C29.314 1.938 29.715 1.80285 30.0046 1.80285C30.3165 1.80285 30.6284 1.87042 30.8958 2.00558L31.0072 1.23971Z" fill="#002751"/>
<path d="M26.6852 3.31186C27.2199 3.19923 27.5763 2.83883 27.5763 2.29821C27.5763 1.30709 26.7297 1.14941 26.1505 1.14941H24.5911V5.63199H26.1505C26.7075 5.63199 27.71 5.47431 27.71 4.32551C27.71 3.7849 27.309 3.37944 26.6852 3.31186ZM25.4822 1.87023H25.8164C26.2174 1.87023 26.6629 1.91528 26.6629 2.43337C26.6629 2.9064 26.1951 2.97398 25.8164 2.97398H25.4599V1.87023H25.4822ZM25.9055 4.9337H25.4822V3.62722H25.9055C26.351 3.62722 26.8189 3.71732 26.8189 4.30298C26.8189 4.82107 26.3287 4.9337 25.9055 4.9337Z" fill="#002751"/>
<path d="M18.9102 5.63199H20.0687L20.8484 2.05043L21.6504 5.63199H22.8089L23.9673 1.14941H23.0985L22.2519 4.73097L21.4722 1.14941H20.2692L19.5117 4.73097H19.4895L18.6652 1.14941H17.7295L18.9102 5.63199Z" fill="#002751"/>
<path d="M14.41 10.0713C14.41 9.84604 14.3878 9.62078 14.3655 9.39553C14.3209 8.87744 14.2318 8.35935 14.1427 7.84127C14.009 7.0754 13.8308 6.30953 13.6303 5.56619C13.4744 5.00305 13.3184 4.43992 13.1402 3.87678C12.9843 3.40374 12.6946 2.05221 12.004 2.16484C12.004 2.16484 11.9817 2.16484 11.9372 2.16484C12.1377 2.79555 12.3605 3.51637 12.561 4.30476C12.8506 5.40851 13.0956 6.51226 13.3184 7.61601C13.4521 8.26925 13.5635 8.89997 13.6526 9.5532C13.6749 9.73341 13.6749 9.95866 13.5412 10.1163C13.4298 10.274 13.2293 10.3416 13.0511 10.3866C12.5387 10.5894 12.0486 10.7921 11.5362 10.9723C9.50889 11.7157 7.39248 12.2788 5.27608 12.7293C5.03102 12.7744 4.78596 12.8194 4.51863 12.887C4.07307 12.9771 3.62751 13.0672 3.18195 13.1348C3.026 13.1573 2.8255 13.1798 2.66956 13.1348C2.69183 13.2023 2.73639 13.2699 2.78095 13.3375C2.89234 13.5177 3.04828 13.7204 3.27106 13.7429C3.40473 13.7655 3.56067 13.7204 3.69434 13.6979C3.85029 13.6754 4.02851 13.6528 4.18446 13.6303C4.58546 13.5627 4.96419 13.4952 5.36519 13.4276C5.89986 13.315 6.43453 13.2249 6.94693 13.0897C7.57071 12.9546 8.19449 12.7969 8.81827 12.6167C9.93217 12.3238 11.0238 11.9634 12.0931 11.5805C12.5387 11.4228 12.9843 11.2426 13.4298 11.0849C13.5189 11.0624 13.5858 11.0174 13.6749 10.9948C13.9199 10.9047 14.2095 10.7921 14.3432 10.5443C14.41 10.3866 14.41 10.229 14.41 10.0713Z" fill="#CFCFCF"/>
<path d="M10.6451 1.46607C10.6451 1.69133 10.4669 1.89405 10.2219 1.89405C9.99909 1.89405 9.79858 1.71385 9.79858 1.46607C9.79858 1.24082 9.97681 1.03809 10.2219 1.03809C10.4446 1.03809 10.6451 1.21829 10.6451 1.46607Z" fill="#002751"/>
<path d="M11.9818 0.700445C11.9818 0.9257 11.8036 1.12843 11.5585 1.12843C11.3358 1.12843 11.1353 0.948226 11.1353 0.700445C11.1353 0.47519 11.3135 0.272461 11.5585 0.272461C11.7813 0.272461 11.9818 0.452665 11.9818 0.700445Z" fill="#002751"/>
<path d="M11.1797 8.179C10.8678 5.99403 10.2886 3.83158 9.48656 1.78176C9.35289 1.44388 9.17467 1.2862 8.81822 1.26367C8.77366 1.26367 8.72911 1.26367 8.68455 1.2862C8.66227 1.2862 8.63999 1.2862 8.61772 1.2862C6.50131 1.5565 4.42946 2.14217 2.469 2.95308C2.24622 3.04319 2.00116 3.15581 1.88977 3.40359C1.82294 3.56127 1.84521 3.74148 1.86749 3.92168C2.20166 6.08413 2.80317 8.20153 3.60517 10.2288C3.64973 10.364 3.71656 10.5217 3.85023 10.6118C4.00618 10.7244 4.22896 10.7019 4.42946 10.6793C6.59042 10.3414 8.70683 9.75578 10.7341 8.94487C10.9123 8.87729 11.0906 8.78719 11.1574 8.62951C11.2242 8.47183 11.202 8.31415 11.1797 8.179ZM6.10031 3.38107C6.32309 3.38107 6.52359 3.56127 6.52359 3.80905C6.52359 4.03431 6.34536 4.23704 6.10031 4.23704C5.87753 4.23704 5.67703 4.05683 5.67703 3.80905C5.67703 3.56127 5.87753 3.38107 6.10031 3.38107ZM4.25124 10.1162C4.02846 10.1162 3.82795 9.93599 3.82795 9.68821C3.82795 9.46295 4.00618 9.26022 4.25124 9.26022C4.47401 9.26022 4.67452 9.44043 4.67452 9.68821C4.67452 9.93599 4.49629 10.1162 4.25124 10.1162ZM5.58791 9.37285C5.36513 9.37285 5.16463 9.19265 5.16463 8.94487C5.16463 8.71961 5.34286 8.51688 5.58791 8.51688C5.81069 8.51688 6.01119 8.69709 6.01119 8.94487C6.01119 9.17012 5.83297 9.37285 5.58791 9.37285ZM5.96664 5.25069C5.96664 5.02543 6.14486 4.8227 6.38992 4.8227C6.6127 4.8227 6.8132 5.00291 6.8132 5.25069C6.8132 5.47594 6.63498 5.67867 6.38992 5.67867C6.16714 5.67867 5.96664 5.49847 5.96664 5.25069ZM6.25625 6.71484C6.25625 6.48959 6.43448 6.28686 6.67953 6.28686C6.90231 6.28686 7.10281 6.46706 7.10281 6.71484C7.10281 6.9401 6.92459 7.14283 6.67953 7.14283C6.43448 7.14283 6.25625 6.96262 6.25625 6.71484ZM6.92459 8.60698C6.70181 8.60698 6.50131 8.42678 6.50131 8.179C6.50131 7.95375 6.67953 7.75102 6.92459 7.75102C7.14737 7.75102 7.34787 7.93122 7.34787 8.179C7.34787 8.42678 7.16965 8.60698 6.92459 8.60698ZM7.43698 3.47117C7.2142 3.47117 7.0137 3.29097 7.0137 3.04319C7.0137 2.81793 7.19193 2.6152 7.43698 2.6152C7.68204 2.6152 7.86027 2.79541 7.86027 3.04319C7.86027 3.29097 7.68204 3.47117 7.43698 3.47117ZM8.77366 2.7053C8.55088 2.7053 8.35038 2.5251 8.35038 2.27732C8.35038 2.05206 8.5286 1.84933 8.77366 1.84933C8.99644 1.84933 9.19694 2.02954 9.19694 2.27732C9.19694 2.5251 9.01872 2.7053 8.77366 2.7053Z" fill="#002751"/>
<path d="M2.40222 10.5217C2.40222 10.2965 2.58045 10.0938 2.8255 10.0938C3.04828 10.0938 3.24878 10.274 3.24878 10.5217C3.24878 10.747 3.07056 10.9497 2.8255 10.9497C2.58045 10.9497 2.40222 10.7695 2.40222 10.5217Z" fill="#002751"/>
<path d="M1.06555 11.2874C1.06555 11.0621 1.24378 10.8594 1.48883 10.8594C1.71161 10.8594 1.91211 11.0396 1.91211 11.2874C1.91211 11.5126 1.73389 11.7153 1.48883 11.7153C1.24378 11.7153 1.06555 11.5126 1.06555 11.2874Z" fill="#002751"/>
</g>
<defs>
<clipPath id="clip0_839_15072">
<rect width="40.5459" height="13.9658" fill="white" transform="translate(0.842896 0.046875)"/>
</clipPath>
</defs>
</svg>
