<svg width="46" height="17" viewBox="0 0 46 17" fill="none" xmlns="http://www.w3.org/2000/svg">
<g clip-path="url(#clip0_839_1694)">
<path d="M42.7141 8.32373V13.3687H45.5223V12.7349H43.4412V11.087H45.3217V10.4532H43.4412V8.95752H45.5223V8.32373H42.7141Z" fill="#002751"/>
<path d="M39.9058 8.32373H38.6021V13.3687H39.3292V11.3405H40.0312C40.9338 11.3405 41.7863 10.9349 41.7863 9.81946C41.7863 8.704 40.9338 8.32373 39.9058 8.32373ZM40.0061 10.7321H39.3041V8.98287H39.9058C40.3571 8.98287 41.009 9.21103 41.009 9.84482C41.009 10.504 40.4574 10.7321 40.0061 10.7321Z" fill="#002751"/>
<path d="M35.8691 8.32373H34.5653V13.3687H35.2924V11.3405H35.9945C36.8971 11.3405 37.7496 10.9349 37.7496 9.81946C37.7245 8.704 36.872 8.32373 35.8691 8.32373ZM35.9694 10.7321H35.2673V8.98287H35.8691C36.3204 8.98287 36.9723 9.21103 36.9723 9.84482C36.9723 10.504 36.4207 10.7321 35.9694 10.7321Z" fill="#002751"/>
<path d="M33.2366 8.32373H32.5094V11.1884C32.5094 12.1518 32.2086 12.8109 31.2809 12.8109C30.3532 12.8109 30.0523 12.1518 30.0523 11.1884V8.32373H29.3252V11.2898C29.3252 12.7095 30.0272 13.4701 31.2558 13.4701C32.4844 13.4701 33.1864 12.7095 33.1864 11.2898V8.32373H33.2366Z" fill="#002751"/>
<path d="M27.4948 11.3659C27.3443 11.0617 27.219 10.9349 27.0184 10.8589V10.8335C27.5951 10.7321 28.0464 10.3011 28.0464 9.69271C28.0464 8.47584 27.0936 8.32373 26.1158 8.32373H24.8872V13.3687H25.6143V11.1377H26.0406C26.4166 11.1377 26.6674 11.1377 26.868 11.6194L27.6452 13.3687H28.4475L27.4948 11.3659ZM26.191 10.504H25.5892V8.98287H26.2662C26.9181 8.98287 27.2691 9.26173 27.2691 9.71806C27.2691 10.1997 26.893 10.504 26.191 10.504Z" fill="#002751"/>
<path d="M23.5333 8.50156C23.107 8.34945 22.8062 8.24805 22.0791 8.24805C20.5496 8.24805 19.4464 9.28745 19.4464 10.8339C19.4464 12.431 20.4995 13.4704 22.0791 13.4704C22.8563 13.4704 23.3327 13.3437 23.6085 13.2423V10.6057H21.8534V11.1888H22.9065V12.7099C22.731 12.7352 22.6056 12.7859 22.1041 12.7859C21.0761 12.7859 20.2237 12.0001 20.2237 10.8085C20.2237 9.69308 21.0009 8.83113 22.1292 8.83113C22.7811 8.83113 23.1572 8.95789 23.5082 9.18605L23.5333 8.50156Z" fill="#002751"/>
<path d="M34.0638 1.70725C33.6877 1.58049 33.2866 1.52979 32.8603 1.52979C31.9828 1.52979 31.1052 1.93541 31.1052 3.07622C31.1052 4.74941 33.2866 4.34379 33.2866 5.30715C33.2866 5.76347 32.7851 5.96628 32.409 5.96628C32.0078 5.96628 31.6318 5.83953 31.2807 5.66207L31.1804 6.57472C31.6819 6.70147 31.9076 6.77753 32.4592 6.77753C33.4621 6.77753 34.3396 6.34655 34.3396 5.25644C34.3396 3.5579 32.1583 3.93817 32.1583 3.05087C32.1583 2.49314 32.6096 2.34103 32.9355 2.34103C33.2866 2.34103 33.6376 2.41708 33.9385 2.56919L34.0638 1.70725Z" fill="#002751"/>
<path d="M29.1997 4.0392C29.8015 3.91245 30.2027 3.50683 30.2027 2.89839C30.2027 1.78293 29.2499 1.60547 28.598 1.60547H26.8429V6.6504H28.598C29.2248 6.6504 30.3531 6.47294 30.3531 5.18002C30.3531 4.57158 29.9018 4.11526 29.1997 4.0392ZM27.8458 2.41671H28.2219C28.6732 2.41671 29.1747 2.46742 29.1747 3.0505C29.1747 3.58288 28.6481 3.65893 28.2219 3.65893H27.8207V2.41671H27.8458ZM28.3222 5.86451H27.8458V4.39412H28.3222C28.8236 4.39412 29.3502 4.49553 29.3502 5.15467C29.3502 5.73775 28.7986 5.86451 28.3222 5.86451Z" fill="#002751"/>
<path d="M20.4493 6.6504H21.7531L22.6307 2.61953L23.5333 6.6504H24.8371L26.1409 1.60547H25.163L24.2103 5.63634L23.3327 1.60547H21.9788L21.1263 5.63634H21.1012L20.1735 1.60547H19.1205L20.4493 6.6504Z" fill="#002751"/>
<path d="M15.3845 11.6456C15.3845 11.392 15.3595 11.1385 15.3344 10.885C15.2842 10.3019 15.1839 9.71885 15.0836 9.13577C14.9332 8.27382 14.7326 7.41188 14.507 6.57528C14.3315 5.94149 14.156 5.30771 13.9554 4.67392C13.7799 4.14154 13.4539 2.62046 12.6767 2.74722C12.6767 2.74722 12.6516 2.74722 12.6014 2.74722C12.8271 3.45706 13.0778 4.2683 13.3035 5.1556C13.6294 6.39782 13.9052 7.64004 14.156 8.88226C14.3064 9.61745 14.4318 10.3273 14.532 11.0625C14.5571 11.2653 14.5571 11.5188 14.4067 11.6963C14.2813 11.8737 14.0557 11.9498 13.8551 12.0005C13.2784 12.2286 12.7268 12.4568 12.1501 12.6596C9.8685 13.4962 7.48658 14.13 5.10466 14.637C4.82886 14.6877 4.55306 14.7384 4.25219 14.8145C3.75073 14.9159 3.24927 15.0173 2.74782 15.0934C2.57231 15.1187 2.34665 15.1441 2.17114 15.0934C2.19622 15.1694 2.24636 15.2455 2.29651 15.3215C2.42187 15.5243 2.59738 15.7525 2.84811 15.7778C2.99855 15.8032 3.17406 15.7525 3.32449 15.7271C3.5 15.7018 3.70059 15.6764 3.87609 15.6511C4.32741 15.575 4.75364 15.499 5.20495 15.4229C5.8067 15.2962 6.40845 15.1948 6.98513 15.0427C7.68716 14.8905 8.3892 14.7131 9.09124 14.5103C10.3449 14.1807 11.5735 13.7751 12.7769 13.3441C13.2784 13.1666 13.7799 12.9638 14.2813 12.7864C14.3816 12.761 14.4568 12.7103 14.5571 12.685C14.8329 12.5836 15.1589 12.4568 15.3093 12.1779C15.3845 12.0005 15.3845 11.823 15.3845 11.6456Z" fill="#CFCFCF"/>
<path d="M11.1472 1.96117C11.1472 2.21468 10.9466 2.44285 10.6708 2.44285C10.4201 2.44285 10.1945 2.24003 10.1945 1.96117C10.1945 1.70765 10.395 1.47949 10.6708 1.47949C10.9216 1.47949 11.1472 1.6823 11.1472 1.96117Z" fill="#002751"/>
<path d="M12.6517 1.09886C12.6517 1.35238 12.4511 1.58054 12.1753 1.58054C11.9246 1.58054 11.6989 1.37773 11.6989 1.09886C11.6989 0.84535 11.8995 0.617188 12.1753 0.617188C12.426 0.617188 12.6517 0.819999 12.6517 1.09886Z" fill="#002751"/>
<path d="M11.7489 9.51579C11.3979 7.05671 10.746 4.62297 9.84339 2.31599C9.69295 1.93572 9.49237 1.75826 9.0912 1.73291C9.04106 1.73291 8.99091 1.73291 8.94077 1.75826C8.91569 1.75826 8.89062 1.75826 8.86555 1.75826C6.48363 2.06248 4.15186 2.72162 1.94545 3.63427C1.69472 3.73567 1.41892 3.86243 1.29355 4.14129C1.21834 4.31875 1.24341 4.52157 1.26848 4.72438C1.64457 7.15811 2.32154 9.54115 3.22416 11.8228C3.27431 11.9749 3.34953 12.1523 3.49996 12.2537C3.67547 12.3805 3.9262 12.3552 4.15186 12.3298C6.58392 11.9495 8.96584 11.2904 11.2475 10.3777C11.448 10.3017 11.6486 10.2003 11.7239 10.0228C11.7991 9.84536 11.774 9.6679 11.7489 9.51579ZM6.03232 4.11594C6.28305 4.11594 6.5087 4.31875 6.5087 4.59762C6.5087 4.85113 6.30812 5.0793 6.03232 5.0793C5.78159 5.0793 5.55593 4.87649 5.55593 4.59762C5.55593 4.31875 5.78159 4.11594 6.03232 4.11594ZM3.95127 11.696C3.70055 11.696 3.47489 11.4932 3.47489 11.2143C3.47489 10.9608 3.67547 10.7327 3.95127 10.7327C4.202 10.7327 4.42766 10.9355 4.42766 11.2143C4.42766 11.4932 4.22707 11.696 3.95127 11.696ZM5.45564 10.8594C5.20491 10.8594 4.97926 10.6566 4.97926 10.3777C4.97926 10.1242 5.17984 9.89606 5.45564 9.89606C5.70637 9.89606 5.93203 10.0989 5.93203 10.3777C5.93203 10.6313 5.73144 10.8594 5.45564 10.8594ZM5.88188 6.22011C5.88188 5.9666 6.08246 5.73843 6.35827 5.73843C6.60899 5.73843 6.83465 5.94125 6.83465 6.22011C6.83465 6.47362 6.63407 6.70179 6.35827 6.70179C6.10754 6.70179 5.88188 6.49898 5.88188 6.22011ZM6.20783 7.86795C6.20783 7.61444 6.40841 7.38628 6.68421 7.38628C6.93494 7.38628 7.1606 7.58909 7.1606 7.86795C7.1606 8.12147 6.96001 8.34963 6.68421 8.34963C6.40841 8.34963 6.20783 8.14682 6.20783 7.86795ZM6.96001 9.99747C6.70928 9.99747 6.48363 9.79466 6.48363 9.51579C6.48363 9.26228 6.68421 9.03412 6.96001 9.03412C7.21074 9.03412 7.4364 9.23693 7.4364 9.51579C7.4364 9.79466 7.23581 9.99747 6.96001 9.99747ZM7.53669 4.21735C7.28596 4.21735 7.0603 4.01454 7.0603 3.73567C7.0603 3.48216 7.26089 3.25399 7.53669 3.25399C7.81249 3.25399 8.01307 3.45681 8.01307 3.73567C8.01307 4.01454 7.81249 4.21735 7.53669 4.21735ZM9.04106 3.3554C8.79033 3.3554 8.56467 3.15259 8.56467 2.87372C8.56467 2.62021 8.76526 2.39205 9.04106 2.39205C9.29179 2.39205 9.51744 2.59486 9.51744 2.87372C9.51744 3.15259 9.31686 3.3554 9.04106 3.3554Z" fill="#002751"/>
<path d="M1.87036 12.1521C1.87036 11.8986 2.07094 11.6704 2.34674 11.6704C2.59747 11.6704 2.82313 11.8732 2.82313 12.1521C2.82313 12.4056 2.62255 12.6338 2.34674 12.6338C2.07094 12.6338 1.87036 12.431 1.87036 12.1521Z" fill="#002751"/>
<path d="M0.365967 13.0144C0.365967 12.7609 0.566549 12.5327 0.842351 12.5327C1.09308 12.5327 1.31873 12.7355 1.31873 13.0144C1.31873 13.2679 1.11815 13.4961 0.842351 13.4961C0.566549 13.4961 0.365967 13.2679 0.365967 13.0144Z" fill="#002751"/>
</g>
<defs>
<clipPath id="clip0_839_1694">
<rect width="45.6325" height="15.7179" fill="white" transform="translate(0.115234 0.364258)"/>
</clipPath>
</defs>
</svg>
