<svg width="30" height="30" viewBox="0 0 30 30" fill="none" xmlns="http://www.w3.org/2000/svg">
<path d="M15.0398 9.35892C13.5314 9.35892 12.0847 9.95813 11.0181 11.0247C9.95155 12.0913 9.35234 13.538 9.35234 15.0464C9.35234 16.5548 9.95155 18.0014 11.0181 19.068C12.0847 20.1346 13.5314 20.7338 15.0398 20.7338C16.5482 20.7338 17.9948 20.1346 19.0614 19.068C20.128 18.0014 20.7272 16.5548 20.7272 15.0464C20.7272 13.538 20.128 12.0913 19.0614 11.0247C17.9948 9.95813 16.5482 9.35892 15.0398 9.35892ZM15.0398 18.74C14.0598 18.74 13.12 18.3507 12.4271 17.6578C11.7342 16.9649 11.3449 16.0251 11.3449 15.0451C11.3449 14.0652 11.7342 13.1254 12.4271 12.4325C13.12 11.7395 14.0598 11.3503 15.0398 11.3503C16.0197 11.3503 16.9595 11.7395 17.6524 12.4325C18.3454 13.1254 18.7346 14.0652 18.7346 15.0451C18.7346 16.0251 18.3454 16.9649 17.6524 17.6578C16.9595 18.3507 16.0197 18.74 15.0398 18.74Z" fill="#00204B"/>
<path d="M20.9523 10.4757C21.6846 10.4757 22.2782 9.88211 22.2782 9.14982C22.2782 8.41754 21.6846 7.82391 20.9523 7.82391C20.22 7.82391 19.6264 8.41754 19.6264 9.14982C19.6264 9.88211 20.22 10.4757 20.9523 10.4757Z" fill="#00204B"/>
<path d="M25.5364 7.80177C25.2517 7.06646 24.8166 6.39871 24.2589 5.84125C23.7012 5.28379 23.0333 4.84892 22.2979 4.56446C21.4373 4.24141 20.5282 4.06673 19.6091 4.04786C18.4247 3.9962 18.0495 3.98145 15.0459 3.98145C12.0423 3.98145 11.6573 3.98145 10.4827 4.04786C9.56437 4.06577 8.65587 4.24048 7.79641 4.56446C7.06081 4.84858 6.39272 5.28334 5.835 5.84084C5.27729 6.39834 4.84228 7.06627 4.55787 7.80177C4.23476 8.66228 4.06049 9.57151 4.04251 10.4905C3.98962 11.6737 3.97363 12.0489 3.97363 15.0537C3.97363 18.0573 3.97363 18.4399 4.04251 19.617C4.06096 20.537 4.23439 21.4447 4.55787 22.3069C4.84308 23.0422 5.27851 23.7098 5.83636 24.2672C6.39421 24.8247 7.06219 25.2596 7.79764 25.5442C8.65547 25.8803 9.56435 26.0674 10.4852 26.0977C11.6696 26.1494 12.0448 26.1654 15.0484 26.1654C18.052 26.1654 18.437 26.1654 19.6116 26.0977C20.5305 26.079 21.4396 25.9048 22.3003 25.5824C23.0356 25.2972 23.7033 24.862 24.2609 24.3044C24.8185 23.7468 25.2538 23.0791 25.5389 22.3438C25.8624 21.4828 26.0358 20.5751 26.0542 19.6551C26.1071 18.4718 26.1231 18.0967 26.1231 15.0919C26.1231 12.087 26.1231 11.7057 26.0542 10.5286C26.0399 9.59664 25.8647 8.67413 25.5364 7.80177ZM24.0383 19.5259C24.0304 20.2348 23.901 20.937 23.6558 21.6021C23.4711 22.0805 23.1883 22.5148 22.8256 22.8772C22.463 23.2397 22.0285 23.5222 21.5501 23.7066C20.8923 23.9507 20.1975 24.0801 19.496 24.0892C18.3275 24.1433 17.9979 24.1568 15.0016 24.1568C12.0029 24.1568 11.6967 24.1568 10.5061 24.0892C9.80488 24.0806 9.11043 23.9512 8.45322 23.7066C7.97315 23.5234 7.53689 23.2413 7.17268 22.8788C6.80847 22.5163 6.52441 22.0814 6.33889 21.6021C6.09713 20.9442 5.96781 20.2502 5.95636 19.5493C5.90347 18.3808 5.89117 18.0512 5.89117 15.055C5.89117 12.0575 5.89117 11.7512 5.95636 10.5594C5.96431 9.85094 6.0937 9.14911 6.33889 8.48441C6.71403 7.51395 7.48277 6.75013 8.45322 6.37868C9.11076 6.13531 9.805 6.00595 10.5061 5.99615C11.6758 5.94326 12.0042 5.9285 15.0016 5.9285C17.9991 5.9285 18.3066 5.92851 19.496 5.99615C20.1976 6.00459 20.8925 6.134 21.5501 6.37868C22.0284 6.56351 22.4629 6.84632 22.8255 7.20895C23.1881 7.57159 23.471 8.00603 23.6558 8.48441C23.8975 9.14238 24.0269 9.83635 24.0383 10.5372C24.0912 11.707 24.1047 12.0354 24.1047 15.0328C24.1047 18.0291 24.1047 18.3513 24.0518 19.5272H24.0383V19.5259Z" fill="#00204B"/>
</svg>
