<svg width="13" height="13" viewBox="0 0 13 13" fill="none" xmlns="http://www.w3.org/2000/svg">
<g clip-path="url(#clip0_803_101205)">
<path d="M3.39954 4.28506C3.39954 4.63069 3.11934 4.91089 2.77371 4.91089C2.42802 4.91089 2.14783 4.63069 2.14783 4.28506C2.14783 3.93937 2.42802 3.65918 2.77371 3.65918C3.11934 3.65918 3.39954 3.93937 3.39954 4.28506Z" fill="#C4C4C4"/>
<path d="M3.39954 6.78891C3.39954 7.1346 3.11934 7.4148 2.77371 7.4148C2.42802 7.4148 2.14783 7.1346 2.14783 6.78891C2.14783 6.44328 2.42802 6.16309 2.77371 6.16309C3.11934 6.16309 3.39954 6.44328 3.39954 6.78891Z" fill="#C4C4C4"/>
<path d="M3.39954 9.29288C3.39954 9.63851 3.11934 9.91876 2.77371 9.91876C2.42802 9.91876 2.14783 9.63851 2.14783 9.29288C2.14783 8.94724 2.42802 8.66699 2.77371 8.66699C3.11934 8.66699 3.39954 8.94724 3.39954 9.29288Z" fill="#C4C4C4"/>
<path d="M4.65149 4.8595H9.34753C9.52065 4.8595 9.66058 4.6611 9.66058 4.41563C9.66058 4.17017 9.52065 3.97168 9.34753 3.97168H4.65149C4.47837 3.97168 4.33838 4.17017 4.33838 4.41563C4.33838 4.6611 4.47837 4.8595 4.65149 4.8595V4.8595Z" fill="#C4C4C4"/>
<path d="M9.34801 6.47607H4.65197C4.47885 6.47607 4.33887 6.67448 4.33887 6.91994C4.33887 7.16541 4.47885 7.3639 4.65197 7.3639H9.34801C9.52113 7.3639 9.66106 7.16541 9.66106 6.91994C9.66106 6.67448 9.52113 6.47607 9.34801 6.47607V6.47607Z" fill="#C4C4C4"/>
<path d="M9.34801 8.97998H4.65197C4.47885 8.97998 4.33887 9.1784 4.33887 9.42389C4.33887 9.66938 4.47885 9.8678 4.65197 9.8678H9.34801C9.52113 9.8678 9.66106 9.66938 9.66106 9.42389C9.66106 9.1784 9.52113 8.97998 9.34801 8.97998V8.97998Z" fill="#C4C4C4"/>
</g>
<defs>
<clipPath id="clip0_803_101205">
<rect width="7.51233" height="7.51233" fill="white" transform="translate(2.14783 3.02783)"/>
</clipPath>
</defs>
</svg>
