<svg width="14" height="13" viewBox="0 0 14 13" fill="none" xmlns="http://www.w3.org/2000/svg">
<g clip-path="url(#clip0_803_101107)">
<path d="M4.07374 3.8563C4.07374 4.20621 3.79007 4.48988 3.44016 4.48988C3.09019 4.48988 2.80652 4.20621 2.80652 3.8563C2.80652 3.50632 3.09019 3.22266 3.44016 3.22266C3.79007 3.22266 4.07374 3.50632 4.07374 3.8563Z" fill="#C4C4C4"/>
<path d="M4.07374 6.39139C4.07374 6.74137 3.79007 7.02503 3.44016 7.02503C3.09019 7.02503 2.80652 6.74137 2.80652 6.39139C2.80652 6.04148 3.09019 5.75781 3.44016 5.75781C3.79007 5.75781 4.07374 6.04148 4.07374 6.39139Z" fill="#C4C4C4"/>
<path d="M4.07374 8.92661C4.07374 9.27652 3.79007 9.56025 3.44016 9.56025C3.09019 9.56025 2.80652 9.27652 2.80652 8.92661C2.80652 8.57669 3.09019 8.29297 3.44016 8.29297C3.79007 8.29297 4.07374 8.57669 4.07374 8.92661Z" fill="#C4C4C4"/>
<path d="M5.34128 4.43789H10.0955C10.2708 4.43789 10.4124 4.23702 10.4124 3.98852C10.4124 3.74001 10.2708 3.53906 10.0955 3.53906H5.34128C5.16601 3.53906 5.02429 3.74001 5.02429 3.98852C5.02429 4.23702 5.16601 4.43789 5.34128 4.43789V4.43789Z" fill="#C4C4C4"/>
<path d="M10.096 6.07471H5.34177C5.1665 6.07471 5.02478 6.27557 5.02478 6.52408C5.02478 6.77258 5.1665 6.97353 5.34177 6.97353H10.096C10.2713 6.97353 10.4129 6.77258 10.4129 6.52408C10.4129 6.27557 10.2713 6.07471 10.096 6.07471V6.07471Z" fill="#C4C4C4"/>
<path d="M10.096 8.60986H5.34177C5.1665 8.60986 5.02478 8.81074 5.02478 9.05927C5.02478 9.3078 5.1665 9.50869 5.34177 9.50869H10.096C10.2713 9.50869 10.4129 9.3078 10.4129 9.05927C10.4129 8.81074 10.2713 8.60986 10.096 8.60986V8.60986Z" fill="#C4C4C4"/>
</g>
<defs>
<clipPath id="clip0_803_101107">
<rect width="7.60542" height="7.60542" fill="white" transform="translate(2.80652 2.58398)"/>
</clipPath>
</defs>
</svg>
