<svg width="13" height="13" viewBox="0 0 13 13" fill="none" xmlns="http://www.w3.org/2000/svg">
<g clip-path="url(#clip0_803_100980)">
<path d="M3.59534 4.24545C3.59534 4.59563 3.31145 4.87952 2.96127 4.87952C2.61103 4.87952 2.32715 4.59563 2.32715 4.24545C2.32715 3.89521 2.61103 3.61133 2.96127 3.61133C3.31145 3.61133 3.59534 3.89521 3.59534 4.24545Z" fill="#C4C4C4"/>
<path d="M3.59534 6.7825C3.59534 7.13274 3.31145 7.41663 2.96127 7.41663C2.61103 7.41663 2.32715 7.13274 2.32715 6.7825C2.32715 6.43232 2.61103 6.14844 2.96127 6.14844C3.31145 6.14844 3.59534 6.43232 3.59534 6.7825Z" fill="#C4C4C4"/>
<path d="M3.59534 9.31967C3.59534 9.66985 3.31145 9.95379 2.96127 9.95379C2.61103 9.95379 2.32715 9.66985 2.32715 9.31967C2.32715 8.96949 2.61103 8.68555 2.96127 8.68555C3.31145 8.68555 3.59534 8.96949 3.59534 9.31967Z" fill="#C4C4C4"/>
<path d="M4.86374 4.82773H9.6216C9.797 4.82773 9.93877 4.62671 9.93877 4.37802C9.93877 4.12932 9.797 3.92822 9.6216 3.92822H4.86374C4.68834 3.92822 4.54651 4.12932 4.54651 4.37802C4.54651 4.62671 4.68834 4.82773 4.86374 4.82773V4.82773Z" fill="#C4C4C4"/>
<path d="M9.62208 6.46533H4.86423C4.68883 6.46533 4.547 6.66635 4.547 6.91504C4.547 7.16374 4.68883 7.36484 4.86423 7.36484H9.62208C9.79748 7.36484 9.93925 7.16374 9.93925 6.91504C9.93925 6.66635 9.79748 6.46533 9.62208 6.46533V6.46533Z" fill="#C4C4C4"/>
<path d="M9.62208 9.00244H4.86423C4.68883 9.00244 4.547 9.20348 4.547 9.4522C4.547 9.70091 4.68883 9.90195 4.86423 9.90195H9.62208C9.79748 9.90195 9.93925 9.70091 9.93925 9.4522C9.93925 9.20348 9.79748 9.00244 9.62208 9.00244V9.00244Z" fill="#C4C4C4"/>
</g>
<defs>
<clipPath id="clip0_803_100980">
<rect width="7.61122" height="7.61122" fill="white" transform="translate(2.32703 2.97217)"/>
</clipPath>
</defs>
</svg>
