<svg width="29" height="31" viewBox="0 0 29 31" fill="none" xmlns="http://www.w3.org/2000/svg">
<path d="M28.9416 22.6897C28.9251 22.19 28.8792 21.692 28.8303 21.1948C28.7157 20.0293 28.5471 18.8696 28.3457 17.7173C28.044 15.9921 27.6655 14.282 27.2321 12.5881C26.9055 11.312 26.5664 10.0388 26.1893 8.77795C25.8655 7.69528 25.2339 4.66087 23.7174 4.92656C23.7174 4.92656 23.6503 4.93587 23.5518 4.94994C23.9982 6.39173 24.464 8.00518 24.909 9.74428C25.5389 12.2062 26.0802 14.6931 26.5408 17.1956C26.8075 18.6445 27.0571 20.1002 27.2502 21.5622C27.3058 21.9835 27.2849 22.4592 27.031 22.8119C26.7772 23.1643 26.3659 23.2943 25.9886 23.4424C24.8851 23.8752 23.7921 24.3342 22.6824 24.75C18.276 26.4014 13.7053 27.7044 9.10033 28.673C8.55777 28.7871 8.01446 28.897 7.4704 29.003C6.49874 29.1969 5.52576 29.4065 4.54905 29.5699C4.2003 29.6283 3.79659 29.6635 3.43579 29.5827C3.50541 29.7319 3.57286 29.8824 3.65487 30.0245C3.89608 30.4425 4.23476 30.8607 4.71863 30.9491C5.02394 31.0048 5.35205 30.9138 5.65424 30.8681C6.01028 30.8144 6.36578 30.7569 6.72086 30.6967C7.57919 30.551 8.43555 30.3921 9.28987 30.2224C10.4411 29.9937 11.5888 29.745 12.7323 29.4767C14.0911 29.1579 15.4439 28.8112 16.789 28.4338C19.1905 27.7599 21.5659 26.9827 23.9091 26.1127C24.8826 25.7512 25.8507 25.3738 26.811 24.9754C26.988 24.902 27.1671 24.8346 27.3447 24.7629C27.8738 24.5491 28.4868 24.2875 28.7865 23.7485C28.9699 23.4184 28.9538 23.0594 28.9416 22.6897Z" fill="#D0D0D0"/>
<path d="M20.878 3.12772C20.878 3.65804 20.4695 4.08792 19.9682 4.08792C19.4634 4.08792 19.0557 3.65804 19.0557 3.12772C19.0557 2.59829 19.4634 2.16797 19.9682 2.16797C20.4695 2.16797 20.878 2.59829 20.878 3.12772Z" fill="#002751"/>
<path d="M23.7416 1.48221C23.7416 2.01254 23.3332 2.44241 22.832 2.44241C22.3273 2.44241 21.9193 2.01254 21.9193 1.48221C21.9193 0.952784 22.3273 0.522461 22.832 0.522461C23.3332 0.522461 23.7416 0.952784 23.7416 1.48221Z" fill="#002751"/>
<path d="M22.1353 18.4011C21.4365 13.433 20.1968 8.55004 18.4488 3.87934C18.1547 3.09364 17.7862 2.74152 17.0014 2.7168C16.9044 2.7283 16.8076 2.74082 16.7108 2.75373C16.663 2.76013 16.6152 2.7666 16.5675 2.77312C11.9869 3.40006 7.47253 4.70426 3.19953 6.55077C2.70347 6.76516 2.16385 7.03516 1.96174 7.55971C1.82268 7.92055 1.87586 8.32819 1.93438 8.71288C2.68136 13.6224 3.94347 18.4441 5.69009 23.0613C5.81072 23.3802 5.94643 23.7156 6.21198 23.9134C6.56524 24.1767 7.04114 24.1231 7.46836 24.0536C12.1534 23.2916 16.7559 21.9637 21.1573 20.1041C21.5206 19.9506 21.9131 19.7643 22.0842 19.3924C22.2233 19.09 22.1821 18.7337 22.1353 18.4011ZM11.1224 7.49646C11.6286 7.49646 12.0373 7.92936 12.0373 8.46302C12.0373 8.99798 11.6286 9.42996 11.1224 9.42996C10.617 9.42996 10.2081 8.99798 10.2081 8.46302C10.2081 7.92936 10.617 7.49646 11.1224 7.49646ZM7.11207 22.822C6.60882 22.822 6.19876 22.3886 6.19876 21.8555C6.19876 21.3214 6.60882 20.8885 7.11207 20.8885C7.61876 20.8885 8.02794 21.3214 8.02794 21.8555C8.02794 22.3886 7.61876 22.822 7.11207 22.822ZM10.0139 21.0995C9.50887 21.0995 9.09921 20.6652 9.09921 20.133C9.09921 19.5989 9.50887 19.1655 10.0139 19.1655C10.5192 19.1655 10.9284 19.5989 10.9284 20.133C10.9284 20.6652 10.5192 21.0995 10.0139 21.0995ZM10.8373 11.7699C10.8373 11.2362 11.246 10.8029 11.7515 10.8029C12.2555 10.8029 12.6656 11.2362 12.6656 11.7699C12.6656 12.3035 12.2555 12.7369 11.7515 12.7369C11.246 12.7369 10.8373 12.3035 10.8373 11.7699ZM11.446 15.0975C11.446 14.5639 11.8548 14.1305 12.3602 14.1305C12.8643 14.1305 13.2743 14.5639 13.2743 15.0975C13.2743 15.6311 12.8643 16.0645 12.3602 16.0645C11.8548 16.0645 11.446 15.6311 11.446 15.0975ZM12.9177 19.3889C12.4114 19.3889 12.0026 18.956 12.0026 18.4224C12.0026 17.8873 12.4114 17.4554 12.9177 17.4554C13.4231 17.4554 13.8319 17.8873 13.8319 18.4224C13.8319 18.956 13.4231 19.3889 12.9177 19.3889ZM14.0262 7.71987C13.5208 7.71987 13.1115 7.28644 13.1115 6.75238C13.1115 6.22012 13.5208 5.78584 14.0262 5.78584C14.5311 5.78584 14.9408 6.22012 14.9408 6.75238C14.9408 7.28644 14.5311 7.71987 14.0262 7.71987ZM16.928 5.99687C16.4213 5.99687 16.0121 5.56396 16.0121 5.02985C16.0121 4.49671 16.4213 4.06331 16.928 4.06331C17.4312 4.06331 17.8413 4.49671 17.8413 5.02985C17.8413 5.56396 17.4312 5.99687 16.928 5.99687Z" fill="#002751"/>
<path d="M2.91504 23.6994C2.91504 23.1691 3.32358 22.7393 3.82491 22.7393C4.32968 22.7393 4.73736 23.1691 4.73736 23.6994C4.73736 24.2289 4.32968 24.6592 3.82491 24.6592C3.32358 24.6592 2.91504 24.2289 2.91504 23.6994Z" fill="#002751"/>
<path d="M0.0513916 25.345C0.0513916 24.8146 0.459833 24.3848 0.961046 24.3848C1.4657 24.3848 1.87372 24.8146 1.87372 25.345C1.87372 25.8744 1.4657 26.3047 0.961046 26.3047C0.459833 26.3047 0.0513916 25.8744 0.0513916 25.345Z" fill="#002751"/>
</svg>
