<svg width="26" height="28" viewBox="0 0 26 28" fill="none" xmlns="http://www.w3.org/2000/svg">
<path d="M25.8221 20.3833C25.8074 19.9396 25.7667 19.4975 25.7232 19.0561C25.6215 18.0212 25.4718 16.9916 25.2929 15.9685C25.0251 14.4368 24.6891 12.9184 24.3043 11.4145C24.0143 10.2815 23.7133 9.1511 23.3784 8.03169C23.0909 7.07044 22.5302 4.37632 21.1838 4.61222C21.1838 4.61222 21.1242 4.62048 21.0367 4.63298C21.4331 5.91307 21.8466 7.34558 22.2417 8.88965C22.8009 11.0755 23.2816 13.2834 23.6905 15.5053C23.9273 16.7917 24.1489 18.0842 24.3203 19.3822C24.3697 19.7563 24.3511 20.1786 24.1257 20.4918C23.9004 20.8047 23.5352 20.9201 23.2002 21.0516C22.2205 21.4358 21.2501 21.8434 20.2648 22.2126C16.3525 23.6788 12.2944 24.8356 8.20592 25.6956C7.7242 25.7969 7.24182 25.8945 6.75878 25.9886C5.89608 26.1607 5.03222 26.3468 4.16505 26.4919C3.85541 26.5437 3.49697 26.575 3.17664 26.5032C3.23844 26.6357 3.29833 26.7693 3.37115 26.8955C3.5853 27.2666 3.886 27.6379 4.31561 27.7164C4.58668 27.7659 4.87799 27.6851 5.14629 27.6445C5.4624 27.5968 5.77804 27.5458 6.0933 27.4923C6.85536 27.363 7.61569 27.2219 8.3742 27.0712C9.39636 26.8682 10.4153 26.6474 11.4306 26.4091C12.6369 26.1261 13.8381 25.8183 15.0323 25.4832C17.1645 24.8849 19.2735 24.1949 21.3539 23.4224C22.2182 23.1015 23.0778 22.7663 23.9304 22.4126C24.0875 22.3474 24.2466 22.2876 24.4042 22.224C24.874 22.0342 25.4183 21.8019 25.6843 21.3233C25.8472 21.0303 25.8328 20.7115 25.8221 20.3833Z" fill="#D0D0D0"/>
<path d="M18.6628 3.01423C18.6628 3.48507 18.3001 3.86674 17.855 3.86674C17.4068 3.86674 17.0449 3.48507 17.0449 3.01423C17.0449 2.54417 17.4068 2.16211 17.855 2.16211C18.3001 2.16211 18.6628 2.54417 18.6628 3.01423Z" fill="#002751"/>
<path d="M21.2053 1.55328C21.2053 2.02414 20.8427 2.4058 20.3977 2.4058C19.9496 2.4058 19.5873 2.02414 19.5873 1.55328C19.5873 1.08324 19.9496 0.701172 20.3977 0.701172C20.8427 0.701172 21.2053 1.08324 21.2053 1.55328Z" fill="#002751"/>
<path d="M19.7792 16.5748C19.1587 12.1638 18.0581 7.82847 16.5061 3.68158C16.245 2.984 15.9178 2.67137 15.221 2.64941C15.1349 2.65963 15.0489 2.67074 14.963 2.68221C14.9205 2.68788 14.8781 2.69363 14.8358 2.69942C10.7689 3.25605 6.76077 4.41399 2.96698 6.05342C2.52654 6.24376 2.04744 6.48349 1.868 6.94921C1.74454 7.26958 1.79175 7.63151 1.84371 7.97305C2.50692 12.332 3.62748 16.613 5.17823 20.7124C5.28533 20.9955 5.40582 21.2932 5.64159 21.4689C5.95523 21.7027 6.37776 21.655 6.75707 21.5934C10.9167 20.9168 15.0031 19.7379 18.9109 18.0868C19.2334 17.9505 19.5819 17.7851 19.7338 17.4549C19.8573 17.1864 19.8207 16.8701 19.7792 16.5748ZM10.0013 6.89305C10.4507 6.89305 10.8137 7.2774 10.8137 7.75122C10.8137 8.22618 10.4507 8.60972 10.0013 8.60972C9.55257 8.60972 9.18958 8.22618 9.18958 7.75122C9.18958 7.2774 9.55257 6.89305 10.0013 6.89305ZM6.44073 20.4999C5.99393 20.4999 5.62985 20.1151 5.62985 19.6418C5.62985 19.1676 5.99393 18.7832 6.44073 18.7832C6.8906 18.7832 7.2539 19.1676 7.2539 19.6418C7.2539 20.1151 6.8906 20.4999 6.44073 20.4999ZM9.01709 18.9705C8.56874 18.9705 8.20502 18.585 8.20502 18.1124C8.20502 17.6382 8.56874 17.2535 9.01709 17.2535C9.46581 17.2535 9.8291 17.6382 9.8291 18.1124C9.8291 18.585 9.46581 18.9705 9.01709 18.9705ZM9.74817 10.6872C9.74817 10.2134 10.1111 9.82868 10.5599 9.82868C11.0074 9.82868 11.3715 10.2134 11.3715 10.6872C11.3715 11.161 11.0074 11.5458 10.5599 11.5458C10.1111 11.5458 9.74817 11.161 9.74817 10.6872ZM10.2886 13.6417C10.2886 13.1679 10.6516 12.7831 11.1003 12.7831C11.5479 12.7831 11.9119 13.1679 11.9119 13.6417C11.9119 14.1154 11.5479 14.5002 11.1003 14.5002C10.6516 14.5002 10.2886 14.1154 10.2886 13.6417ZM11.5953 17.4518C11.1458 17.4518 10.7828 17.0674 10.7828 16.5937C10.7828 16.1186 11.1458 15.7351 11.5953 15.7351C12.044 15.7351 12.4069 16.1186 12.4069 16.5937C12.4069 17.0674 12.044 17.4518 11.5953 17.4518ZM12.5795 7.09141C12.1307 7.09141 11.7674 6.70659 11.7674 6.23242C11.7674 5.75985 12.1307 5.37427 12.5795 5.37427C13.0278 5.37427 13.3915 5.75985 13.3915 6.23242C13.3915 6.70659 13.0278 7.09141 12.5795 7.09141ZM15.1559 5.56164C14.706 5.56164 14.3427 5.17728 14.3427 4.70306C14.3427 4.22971 14.706 3.84492 15.1559 3.84492C15.6026 3.84492 15.9667 4.22971 15.9667 4.70306C15.9667 5.17728 15.6026 5.56164 15.1559 5.56164Z" fill="#002751"/>
<path d="M2.71436 21.2792C2.71436 20.8084 3.07708 20.4268 3.52219 20.4268C3.97035 20.4268 4.33231 20.8084 4.33231 21.2792C4.33231 21.7493 3.97035 22.1314 3.52219 22.1314C3.07708 22.1314 2.71436 21.7493 2.71436 21.2792Z" fill="#002751"/>
<path d="M0.171875 22.7402C0.171875 22.2694 0.534511 21.8877 0.979515 21.8877C1.42757 21.8877 1.78983 22.2694 1.78983 22.7402C1.78983 23.2103 1.42757 23.5923 0.979515 23.5923C0.534511 23.5923 0.171875 23.2103 0.171875 22.7402Z" fill="#002751"/>
</svg>
