<svg width="29" height="31" viewBox="0 0 29 31" fill="none" xmlns="http://www.w3.org/2000/svg">
<path d="M28.7541 22.1911C28.7379 21.6979 28.6925 21.2064 28.6443 20.7157C28.5312 19.5653 28.3648 18.4207 28.1659 17.2833C27.8682 15.5806 27.4946 13.8926 27.0668 12.2207C26.7445 10.9612 26.4098 9.70454 26.0376 8.46012C25.718 7.39151 25.0946 4.39653 23.5978 4.65877C23.5978 4.65877 23.5316 4.66795 23.4343 4.68185C23.875 6.1049 24.3347 7.69738 24.7739 9.4139C25.3956 11.8438 25.9299 14.2984 26.3845 16.7684C26.6478 18.1984 26.8941 19.6353 27.0847 21.0782C27.1395 21.4941 27.1189 21.9636 26.8684 22.3117C26.6179 22.6596 26.2119 22.7879 25.8395 22.934C24.7503 23.3612 23.6715 23.8143 22.5763 24.2247C18.2271 25.8546 13.7158 27.1406 9.17065 28.0967C8.63514 28.2093 8.09889 28.3178 7.5619 28.4224C6.60286 28.6137 5.64252 28.8206 4.67851 28.9819C4.33429 29.0395 3.93582 29.0743 3.57971 28.9945C3.64842 29.1418 3.715 29.2903 3.79595 29.4306C4.03402 29.8431 4.3683 30.256 4.84588 30.3432C5.14723 30.3982 5.47107 30.3083 5.76934 30.2633C6.12075 30.2103 6.47163 30.1535 6.8221 30.094C7.66927 29.9503 8.51451 29.7934 9.35773 29.626C10.494 29.4002 11.6268 29.1548 12.7554 28.8899C14.0965 28.5753 15.4318 28.2331 16.7594 27.8606C19.1297 27.1955 21.4742 26.4284 23.787 25.5696C24.7478 25.2129 25.7034 24.8403 26.6512 24.4471C26.8259 24.3746 27.0027 24.3081 27.178 24.2374C27.7002 24.0264 28.3053 23.7682 28.601 23.2362C28.7821 22.9103 28.7661 22.556 28.7541 22.1911Z" fill="#D0D0D0"/>
<path d="M20.7954 2.88283C20.7954 3.40626 20.3921 3.83055 19.8973 3.83055C19.3991 3.83055 18.9967 3.40626 18.9967 2.88283C18.9967 2.36028 19.3991 1.93555 19.8973 1.93555C20.3921 1.93555 20.7954 2.36028 20.7954 2.88283Z" fill="#002751"/>
<path d="M23.6218 1.2588C23.6218 1.78224 23.2186 2.20653 22.724 2.20653C22.2258 2.20653 21.8231 1.78224 21.8231 1.2588C21.8231 0.736256 22.2258 0.311523 22.724 0.311523C23.2186 0.311523 23.6218 0.736256 23.6218 1.2588Z" fill="#002751"/>
<path d="M22.0364 17.9576C21.3466 13.054 20.1231 8.2345 18.3978 3.62449C18.1075 2.849 17.7438 2.50146 16.9691 2.47705C16.8734 2.4884 16.7778 2.50076 16.6823 2.51351C16.6351 2.51982 16.588 2.52621 16.5409 2.53265C12.0198 3.15144 7.56409 4.43869 3.34661 6.26121C2.85699 6.47281 2.32439 6.73931 2.1249 7.25704C1.98765 7.61319 2.04014 8.01554 2.0979 8.39523C2.83517 13.241 4.08088 18 5.80481 22.5572C5.92387 22.872 6.05782 23.203 6.31992 23.3983C6.66859 23.6582 7.1383 23.6052 7.55997 23.5366C12.1842 22.7845 16.7269 21.4739 21.0711 19.6384C21.4296 19.4869 21.817 19.303 21.9859 18.936C22.1233 18.6375 22.0826 18.2858 22.0364 17.9576ZM11.1665 7.19461C11.6661 7.19461 12.0696 7.62189 12.0696 8.14861C12.0696 8.67662 11.6661 9.10299 11.1665 9.10299C10.6677 9.10299 10.2641 8.67662 10.2641 8.14861C10.2641 7.62189 10.6677 7.19461 11.1665 7.19461ZM7.20831 22.321C6.71161 22.321 6.30687 21.8933 6.30687 21.3671C6.30687 20.8399 6.71161 20.4126 7.20831 20.4126C7.70842 20.4126 8.11229 20.8399 8.11229 21.3671C8.11229 21.8933 7.70842 22.321 7.20831 22.321ZM10.0724 20.6209C9.57397 20.6209 9.16963 20.1922 9.16963 19.6669C9.16963 19.1398 9.57397 18.7121 10.0724 18.7121C10.5712 18.7121 10.9751 19.1398 10.9751 19.6669C10.9751 20.1922 10.5712 20.6209 10.0724 20.6209ZM10.8851 11.4125C10.8851 10.8858 11.2886 10.4581 11.7875 10.4581C12.2849 10.4581 12.6897 10.8858 12.6897 11.4125C12.6897 11.9392 12.2849 12.367 11.7875 12.367C11.2886 12.367 10.8851 11.9392 10.8851 11.4125ZM11.4859 14.6969C11.4859 14.1702 11.8894 13.7425 12.3882 13.7425C12.8858 13.7425 13.2905 14.1702 13.2905 14.6969C13.2905 15.2236 12.8858 15.6513 12.3882 15.6513C11.8894 15.6513 11.4859 15.2236 11.4859 14.6969ZM12.9385 18.9325C12.4388 18.9325 12.0353 18.5052 12.0353 17.9786C12.0353 17.4505 12.4388 17.0241 12.9385 17.0241C13.4373 17.0241 13.8408 17.4505 13.8408 17.9786C13.8408 18.5052 13.4373 18.9325 12.9385 18.9325ZM14.0326 7.41512C13.5338 7.41512 13.1298 6.98732 13.1298 6.4602C13.1298 5.93485 13.5338 5.50622 14.0326 5.50622C14.531 5.50622 14.9353 5.93485 14.9353 6.4602C14.9353 6.98732 14.531 7.41512 14.0326 7.41512ZM16.8968 5.7145C16.3966 5.7145 15.9927 5.28722 15.9927 4.76005C15.9927 4.23383 16.3966 3.80607 16.8968 3.80607C17.3934 3.80607 17.7982 4.23383 17.7982 4.76005C17.7982 5.28722 17.3934 5.7145 16.8968 5.7145Z" fill="#002751"/>
<path d="M3.0658 23.1874C3.0658 22.664 3.46903 22.2397 3.96385 22.2397C4.46206 22.2397 4.86444 22.664 4.86444 23.1874C4.86444 23.71 4.46206 24.1347 3.96385 24.1347C3.46903 24.1347 3.0658 23.71 3.0658 23.1874Z" fill="#002751"/>
<path d="M0.23938 24.8115C0.23938 24.2881 0.642514 23.8638 1.13722 23.8638C1.63531 23.8638 2.03803 24.2881 2.03803 24.8115C2.03803 25.334 1.63531 25.7588 1.13722 25.7588C0.642514 25.7588 0.23938 25.334 0.23938 24.8115Z" fill="#002751"/>
</svg>
