<svg width="30" height="31" viewBox="0 0 30 31" fill="none" xmlns="http://www.w3.org/2000/svg">
<path d="M29.3622 22.3866C29.3458 21.8873 29.2999 21.3897 29.251 20.8929C29.1365 19.7282 28.9681 18.5695 28.7667 17.4179C28.4653 15.6942 28.0871 13.9853 27.654 12.2927C27.3277 11.0176 26.9889 9.7453 26.6121 8.48546C26.2885 7.40361 25.6574 4.3715 24.142 4.637C24.142 4.637 24.075 4.6463 23.9765 4.66036C24.4226 6.10105 24.888 7.71327 25.3327 9.45105C25.9621 11.9111 26.503 14.3961 26.9632 16.8967C27.2298 18.3444 27.4791 19.7991 27.6721 21.2599C27.7276 21.681 27.7068 22.1563 27.4531 22.5087C27.1995 22.8609 26.7885 22.9908 26.4115 23.1387C25.3088 23.5712 24.2167 24.0299 23.1078 24.4454C18.7047 26.0955 14.1375 27.3975 9.53608 28.3653C8.99393 28.4794 8.45104 28.5892 7.90739 28.6951C6.93647 28.8888 5.96423 29.0983 4.98826 29.2616C4.63978 29.3199 4.23638 29.3551 3.87585 29.2743C3.94542 29.4234 4.01282 29.5738 4.09477 29.7158C4.33579 30.1335 4.67422 30.5514 5.15772 30.6397C5.4628 30.6954 5.79065 30.6044 6.09261 30.5588C6.44838 30.5051 6.80361 30.4477 7.15842 30.3874C8.01609 30.2419 8.8718 30.0831 9.72547 29.9136C10.8759 29.6851 12.0227 29.4366 13.1653 29.1684C14.523 28.8499 15.8749 28.5034 17.2189 28.1263C19.6186 27.453 21.9921 26.6764 24.3335 25.807C25.3063 25.4458 26.2737 25.0686 27.2333 24.6705C27.4101 24.5972 27.5891 24.5299 27.7665 24.4582C28.2953 24.2446 28.9078 23.9832 29.2072 23.4446C29.3905 23.1147 29.3744 22.756 29.3622 22.3866Z" fill="#D0D0D0"/>
<path d="M21.3049 2.83939C21.3049 3.36931 20.8967 3.79886 20.3957 3.79886C19.8913 3.79886 19.4839 3.36931 19.4839 2.83939C19.4839 2.31036 19.8913 1.88037 20.3957 1.88037C20.8967 1.88037 21.3049 2.31036 21.3049 2.83939Z" fill="#002751"/>
<path d="M24.1663 1.19485C24.1663 1.72478 23.7582 2.15433 23.2574 2.15433C22.7531 2.15433 22.3454 1.72478 22.3454 1.19485C22.3454 0.665835 22.7531 0.23584 23.2574 0.23584C23.7582 0.23584 24.1663 0.665835 24.1663 1.19485Z" fill="#002751"/>
<path d="M22.5613 18.1006C21.863 13.1362 20.6243 8.25702 18.8776 3.58988C18.5837 2.80478 18.2155 2.45293 17.4312 2.42822C17.3344 2.43972 17.2376 2.45222 17.1409 2.46513C17.0931 2.47152 17.0454 2.47799 16.9977 2.48451C12.4206 3.11097 7.90967 4.41418 3.63993 6.25927C3.14424 6.4735 2.60504 6.7433 2.40308 7.26745C2.26413 7.62801 2.31726 8.03535 2.37574 8.41973C3.12215 13.3255 4.3833 18.1436 6.12859 22.7572C6.24912 23.0759 6.38473 23.411 6.65008 23.6087C7.00307 23.8718 7.4786 23.8182 7.9055 23.7488C12.587 22.9874 17.186 21.6605 21.5841 19.8023C21.947 19.6489 22.3392 19.4627 22.5102 19.0911C22.6492 18.7889 22.6081 18.4329 22.5613 18.1006ZM11.5567 7.20424C12.0625 7.20424 12.471 7.63681 12.471 8.17007C12.471 8.70462 12.0625 9.13627 11.5567 9.13627C11.0517 9.13627 10.6432 8.70462 10.6432 8.17007C10.6432 7.63681 11.0517 7.20424 11.5567 7.20424ZM7.54948 22.5181C7.04662 22.5181 6.63687 22.0851 6.63687 21.5523C6.63687 21.0186 7.04662 20.5861 7.54948 20.5861C8.05579 20.5861 8.46466 21.0186 8.46466 21.5523C8.46466 22.0851 8.05579 22.5181 7.54948 22.5181ZM10.4491 20.7969C9.94445 20.7969 9.53511 20.3629 9.53511 19.8311C9.53511 19.2974 9.94445 18.8644 10.4491 18.8644C10.9541 18.8644 11.3629 19.2974 11.3629 19.8311C11.3629 20.3629 10.9541 20.7969 10.4491 20.7969ZM11.2718 11.4744C11.2718 10.9412 11.6803 10.5082 12.1854 10.5082C12.689 10.5082 13.0988 10.9412 13.0988 11.4744C13.0988 12.0076 12.689 12.4407 12.1854 12.4407C11.6803 12.4407 11.2718 12.0076 11.2718 11.4744ZM11.8801 14.7995C11.8801 14.2663 12.2886 13.8332 12.7936 13.8332C13.2973 13.8332 13.707 14.2663 13.707 14.7995C13.707 15.3327 13.2973 15.7657 12.7936 15.7657C12.2886 15.7657 11.8801 15.3327 11.8801 14.7995ZM13.3507 19.0876C12.8448 19.0876 12.4363 18.655 12.4363 18.1218C12.4363 17.5872 12.8448 17.1556 13.3507 17.1556C13.8557 17.1556 14.2641 17.5872 14.2641 18.1218C14.2641 18.655 13.8557 19.0876 13.3507 19.0876ZM14.4583 7.42748C13.9533 7.42748 13.5444 6.99438 13.5444 6.46073C13.5444 5.92887 13.9533 5.49493 14.4583 5.49493C14.9629 5.49493 15.3722 5.92887 15.3722 6.46073C15.3722 6.99438 14.9629 7.42748 14.4583 7.42748ZM17.358 5.70579C16.8516 5.70579 16.4427 5.27322 16.4427 4.73951C16.4427 4.20678 16.8516 3.77371 17.358 3.77371C17.8607 3.77371 18.2706 4.20678 18.2706 4.73951C18.2706 5.27322 17.8607 5.70579 17.358 5.70579Z" fill="#002751"/>
<path d="M3.35559 23.395C3.35559 22.8651 3.76382 22.4355 4.26477 22.4355C4.76916 22.4355 5.17653 22.8651 5.17653 23.395C5.17653 23.924 4.76916 24.354 4.26477 24.354C3.76382 24.354 3.35559 23.924 3.35559 23.395Z" fill="#002751"/>
<path d="M0.494141 25.0396C0.494141 24.5096 0.90227 24.0801 1.4031 24.0801C1.90737 24.0801 2.31508 24.5096 2.31508 25.0396C2.31508 25.5686 1.90737 25.9986 1.4031 25.9986C0.90227 25.9986 0.494141 25.5686 0.494141 25.0396Z" fill="#002751"/>
</svg>
