<svg width="14" height="13" viewBox="0 0 14 13" fill="none" xmlns="http://www.w3.org/2000/svg">
<g clip-path="url(#clip0_803_101097)">
<path d="M5.51036 2.4585H3.48225C3.20222 2.4585 2.97522 2.6855 2.97522 2.96552V6.51472C2.97522 6.79475 3.20222 7.02175 3.48225 7.02175H5.51036C5.79039 7.02175 6.01739 6.79475 6.01739 6.51472V2.96552C6.01739 2.6855 5.79039 2.4585 5.51036 2.4585Z" stroke="#00204B" stroke-width="0.760542" stroke-miterlimit="10"/>
<path d="M10.5806 8.54248H3.48225C3.20222 8.54248 2.97522 8.76948 2.97522 9.04951V10.0636C2.97522 10.3436 3.20222 10.5706 3.48225 10.5706H10.5806C10.8607 10.5706 11.0877 10.3436 11.0877 10.0636V9.04951C11.0877 8.76948 10.8607 8.54248 10.5806 8.54248Z" stroke="#00204B" stroke-width="0.760542" stroke-miterlimit="10"/>
<path d="M10.5806 2.4585H8.04548C7.76546 2.4585 7.53845 2.6855 7.53845 2.96552V6.51472C7.53845 6.79475 7.76546 7.02175 8.04548 7.02175H10.5806C10.8606 7.02175 11.0877 6.79475 11.0877 6.51472V2.96552C11.0877 2.6855 10.8606 2.4585 10.5806 2.4585Z" stroke="#00204B" stroke-width="0.760542" stroke-miterlimit="10"/>
</g>
<defs>
<clipPath id="clip0_803_101097">
<rect width="12.1687" height="12.1687" fill="white" transform="translate(0.947144 0.430176)"/>
</clipPath>
</defs>
</svg>
