<svg width="12" height="12" viewBox="0 0 12 12" fill="none" xmlns="http://www.w3.org/2000/svg">
<g clip-path="url(#clip0_839_15044)">
<path d="M4.2628 2.7832H2.46076C2.21195 2.7832 2.01025 2.9849 2.01025 3.23371V6.38728C2.01025 6.63609 2.21195 6.83779 2.46076 6.83779H4.2628C4.51161 6.83779 4.71331 6.63609 4.71331 6.38728V3.23371C4.71331 2.9849 4.51161 2.7832 4.2628 2.7832Z" stroke="#00204B" stroke-width="0.675765" stroke-miterlimit="10"/>
<path d="M8.7679 8.18945H2.46076C2.21195 8.18945 2.01025 8.39115 2.01025 8.63996V9.54098C2.01025 9.78979 2.21195 9.99149 2.46076 9.99149H8.7679C9.01671 9.99149 9.21841 9.78979 9.21841 9.54098V8.63996C9.21841 8.39115 9.01671 8.18945 8.7679 8.18945Z" stroke="#00204B" stroke-width="0.675765" stroke-miterlimit="10"/>
<path d="M8.76788 2.7832H6.51533C6.26652 2.7832 6.06482 2.9849 6.06482 3.23371V6.38728C6.06482 6.63609 6.26652 6.83779 6.51533 6.83779H8.76788C9.01669 6.83779 9.21839 6.63609 9.21839 6.38728V3.23371C9.21839 2.9849 9.01669 2.7832 8.76788 2.7832Z" stroke="#00204B" stroke-width="0.675765" stroke-miterlimit="10"/>
</g>
<defs>
<clipPath id="clip0_839_15044">
<rect width="10.8122" height="10.8122" fill="white" transform="translate(0.20813 0.981445)"/>
</clipPath>
</defs>
</svg>
