<svg width="13" height="13" viewBox="0 0 13 13" fill="none" xmlns="http://www.w3.org/2000/svg">
<g clip-path="url(#clip0_803_100970)">
<path d="M5.04208 2.8125H3.01242C2.73218 2.8125 2.505 3.03968 2.505 3.31991V6.87182C2.505 7.15206 2.73218 7.37923 3.01242 7.37923H5.04208C5.32232 7.37923 5.54949 7.15206 5.54949 6.87182V3.31991C5.54949 3.03968 5.32232 2.8125 5.04208 2.8125Z" stroke="#00204B" stroke-width="0.761122" stroke-miterlimit="10"/>
<path d="M10.1162 8.90137H3.01242C2.73218 8.90137 2.505 9.12854 2.505 9.40878V10.4236C2.505 10.7038 2.73218 10.931 3.01242 10.931H10.1162C10.3965 10.931 10.6236 10.7038 10.6236 10.4236V9.40878C10.6236 9.12854 10.3965 8.90137 10.1162 8.90137Z" stroke="#00204B" stroke-width="0.761122" stroke-miterlimit="10"/>
<path d="M10.1163 2.8125H7.57919C7.29895 2.8125 7.07178 3.03968 7.07178 3.31991V6.87182C7.07178 7.15206 7.29895 7.37923 7.57919 7.37923H10.1163C10.3965 7.37923 10.6237 7.15206 10.6237 6.87182V3.31991C10.6237 3.03968 10.3965 2.8125 10.1163 2.8125Z" stroke="#00204B" stroke-width="0.761122" stroke-miterlimit="10"/>
</g>
<defs>
<clipPath id="clip0_803_100970">
<rect width="12.178" height="12.178" fill="white" transform="translate(0.47522 0.782715)"/>
</clipPath>
</defs>
</svg>
