<svg width="13" height="13" viewBox="0 0 13 13" fill="none" xmlns="http://www.w3.org/2000/svg">
<g clip-path="url(#clip0_803_101196)">
<path d="M4.67171 2.45459H2.66842C2.39183 2.45459 2.1676 2.67882 2.1676 2.95541V6.46117C2.1676 6.73776 2.39183 6.96199 2.66842 6.96199H4.67171C4.94831 6.96199 5.17254 6.73776 5.17254 6.46117V2.95541C5.17254 2.67882 4.94831 2.45459 4.67171 2.45459Z" stroke="#00204B" stroke-width="0.751233" stroke-miterlimit="10"/>
<path d="M9.67993 8.46436H2.66842C2.39183 8.46436 2.1676 8.68858 2.1676 8.96518V9.96682C2.1676 10.2434 2.39183 10.4676 2.66842 10.4676H9.67993C9.95653 10.4676 10.1808 10.2434 10.1808 9.96682V8.96518C10.1808 8.68858 9.95653 8.46436 9.67993 8.46436Z" stroke="#00204B" stroke-width="0.751233" stroke-miterlimit="10"/>
<path d="M9.67998 2.45459H7.17587C6.89927 2.45459 6.67505 2.67882 6.67505 2.95541V6.46117C6.67505 6.73776 6.89927 6.96199 7.17587 6.96199H9.67998C9.95658 6.96199 10.1808 6.73776 10.1808 6.46117V2.95541C10.1808 2.67882 9.95658 2.45459 9.67998 2.45459Z" stroke="#00204B" stroke-width="0.751233" stroke-miterlimit="10"/>
</g>
<defs>
<clipPath id="clip0_803_101196">
<rect width="12.0197" height="12.0197" fill="white" transform="translate(0.164185 0.451172)"/>
</clipPath>
</defs>
</svg>
